<?xml version="1.0" standalone="no"?>
<!DOCTYPE svg PUBLIC "-//W3C//DTD SVG 20010904//EN"
 "http://www.w3.org/TR/2001/REC-SVG-20010904/DTD/svg10.dtd">
<svg version="1.0" xmlns="http://www.w3.org/2000/svg"
 width="700.000000pt" height="700.000000pt" viewBox="0 0 700.000000 700.000000"
 preserveAspectRatio="xMidYMid meet">
<metadata>
Created by potrace 1.11, written by Peter Selinger 2001-2013
</metadata>
<g transform="translate(0.000000,700.000000) scale(0.100000,-0.100000)"
fill="#000000" stroke="none">
<path d="M0 3500 l0 -3500 3500 0 3500 0 0 3500 0 3500 -3500 0 -3500 0 0
-3500z m2565 2520 c286 -277 602 -584 701 -681 l182 -178 -779 -756 -779 -756
0 376 0 375 379 383 380 383 -380 380 -379 379 0 375 0 375 78 -76 c42 -42
311 -302 597 -579z m3035 -2955 l0 -265 -265 0 -265 0 0 258 c0 142 3 262 7
265 3 4 123 7 265 7 l258 0 0 -265z m700 0 l0 -265 -265 0 -265 0 0 258 c0
142 3 262 7 265 3 4 123 7 265 7 l258 0 0 -265z m-1400 -700 l0 -265 -265 0
-265 0 0 258 c0 142 3 262 7 265 3 4 123 7 265 7 l258 0 0 -265z m700 0 l0
-265 -265 0 -265 0 0 258 c0 142 3 262 7 265 3 4 123 7 265 7 l258 0 0 -265z
m700 0 l0 -265 -265 0 -265 0 0 258 c0 142 3 262 7 265 3 4 123 7 265 7 l258
0 0 -265z m-2100 -700 l0 -265 -265 0 -265 0 0 258 c0 142 3 262 7 265 3 4
123 7 265 7 l258 0 0 -265z m700 0 l0 -265 -265 0 -265 0 0 258 c0 142 3 262
7 265 3 4 123 7 265 7 l258 0 0 -265z m700 0 l0 -265 -265 0 -265 0 0 258 c0
142 3 262 7 265 3 4 123 7 265 7 l258 0 0 -265z m700 0 l0 -265 -265 0 -265 0
0 258 c0 142 3 262 7 265 3 4 123 7 265 7 l258 0 0 -265z m-2100 -700 l0 -265
-265 0 -265 0 0 258 c0 142 3 262 7 265 3 4 123 7 265 7 l258 0 0 -265z m700
0 l0 -265 -265 0 -265 0 0 258 c0 142 3 262 7 265 3 4 123 7 265 7 l258 0 0
-265z m700 0 l0 -265 -265 0 -265 0 0 258 c0 142 3 262 7 265 3 4 123 7 265 7
l258 0 0 -265z m700 0 l0 -265 -265 0 -265 0 0 258 c0 142 3 262 7 265 3 4
123 7 265 7 l258 0 0 -265z"/>
</g>
</svg>
