<?xml version="1.0" encoding="UTF-8" standalone="no"?>
<!DOCTYPE svg PUBLIC "-//W3C//DTD SVG 1.1//EN" "http://www.w3.org/Graphics/SVG/1.1/DTD/svg11.dtd">
<!-- Généré par Microsoft Visio, SVG Export poptDescLine-DFA.svg Page-1 -->
<svg xmlns="http://www.w3.org/2000/svg" xmlns:xlink="http://www.w3.org/1999/xlink" xmlns:ev="http://www.w3.org/2001/xml-events"
		xmlns:v="http://schemas.microsoft.com/visio/2003/SVGExtensions/" width="7.68994in" height="11.4727in"
		viewBox="0 0 553.675 826.034" xml:space="preserve" color-interpolation-filters="sRGB" class="st22">
	<v:documentProperties v:langID="1036" v:metric="true" v:viewMarkup="false">
		<v:userDefs>
			<v:ud v:nameU="msvNoAutoConnect" v:prompt="" v:val="VT0(0):26"/>
		</v:userDefs>
	</v:documentProperties>

	<style type="text/css">
	<![CDATA[
		.st1 {fill:#73ae42;stroke:#ffffff;stroke-linecap:round;stroke-linejoin:round;stroke-width:0.5}
		.st2 {fill:#73ae42;stroke:#73ae42;stroke-linecap:round;stroke-linejoin:round;stroke-width:0.5}
		.st3 {fill:#ffffff;font-family:Calibri;font-size:1.00001em;font-weight:bold}
		.st4 {font-size:1em}
		.st5 {fill:#ffffff;stroke:#73ae42;stroke-linecap:round;stroke-linejoin:round;stroke-width:0.5}
		.st6 {marker-end:url(#mrkr4-15);stroke:#5592c9;stroke-linecap:round;stroke-linejoin:round;stroke-width:0.5}
		.st7 {fill:#5592c9;fill-opacity:1;stroke:#5592c9;stroke-opacity:1;stroke-width:0.16556291390728}
		.st8 {fill:#ffffff;stroke:none;stroke-linecap:butt;stroke-width:7.2}
		.st9 {fill:#41719d;font-family:Calibri;font-size:0.666664em}
		.st10 {fill:#ffffff;stroke:none;stroke-linecap:butt}
		.st11 {marker-end:url(#mrkr4-112);stroke:#5592c9;stroke-linecap:round;stroke-linejoin:round;stroke-width:0.5}
		.st12 {fill:#73ae42;font-family:Calibri;font-size:1.00001em}
		.st13 {marker-end:url(#mrkr4-186);stroke:#5592c9;stroke-linecap:round;stroke-linejoin:round;stroke-width:0.5}
		.st14 {fill:#5b9bd5;stroke:#5b9bd5;stroke-linecap:round;stroke-linejoin:round;stroke-width:0.5}
		.st15 {fill:#5b9bd5;font-family:Consolas;font-size:0.666664em}
		.st16 {marker-end:url(#mrkr4-239);stroke:#3d6abb;stroke-linecap:round;stroke-linejoin:round;stroke-width:0.5}
		.st17 {fill:#3d6abb;fill-opacity:1;stroke:#3d6abb;stroke-opacity:1;stroke-width:0.16556291390728}
		.st18 {fill:#4271c6}
		.st19 {stroke:#4271c6;stroke-linecap:round;stroke-linejoin:round;stroke-width:0.5}
		.st20 {fill:#4271c6;font-family:Consolas;font-size:0.666664em}
		.st21 {marker-end:url(#mrkr4-275);stroke:#3d6abb;stroke-linecap:round;stroke-linejoin:round;stroke-width:0.5}
		.st22 {fill:none;fill-rule:evenodd;font-size:12px;overflow:visible;stroke-linecap:square;stroke-miterlimit:3}
	]]>
	</style>

	<defs id="Markers">
		<g id="lend4">
			<path d="M 2 1 L 0 0 L 2 -1 L 2 1 " style="stroke:none"/>
		</g>
		<marker id="mrkr4-15" class="st7" v:arrowType="4" v:arrowSize="2" v:setback="12.08" refX="-12.08" orient="auto"
				markerUnits="strokeWidth" overflow="visible">
			<use xlink:href="#lend4" transform="scale(-6.04,-6.04) "/>
		</marker>
		<marker id="mrkr4-112" class="st7" v:arrowType="4" v:arrowSize="2" v:setback="0" refX="-0" orient="auto"
				markerUnits="strokeWidth" overflow="visible">
			<use xlink:href="#lend4" transform="scale(-6.04,-6.04) "/>
		</marker>
		<marker id="mrkr4-186" class="st7" v:arrowType="4" v:arrowSize="2" v:setback="11.36" refX="-11.36" orient="auto"
				markerUnits="strokeWidth" overflow="visible">
			<use xlink:href="#lend4" transform="scale(-6.04,-6.04) "/>
		</marker>
		<marker id="mrkr4-239" class="st17" v:arrowType="4" v:arrowSize="2" v:setback="11.36" refX="-11.36" orient="auto"
				markerUnits="strokeWidth" overflow="visible">
			<use xlink:href="#lend4" transform="scale(-6.04,-6.04) "/>
		</marker>
		<marker id="mrkr4-275" class="st17" v:arrowType="4" v:arrowSize="2" v:setback="0" refX="-0" orient="auto"
				markerUnits="strokeWidth" overflow="visible">
			<use xlink:href="#lend4" transform="scale(-6.04,-6.04) "/>
		</marker>
	</defs>
	<g v:mID="0" v:index="1" v:groupContext="foregroundPage">
		<v:userDefs>
			<v:ud v:nameU="msvThemeOrder" v:val="VT0(0):26"/>
		</v:userDefs>
		<title>Page 1</title>
		<v:pageProperties v:drawingScale="0.0393701" v:pageScale="0.0393701" v:drawingUnits="24" v:shadowOffsetX="8.50394"
				v:shadowOffsetY="-8.50394"/>
		<v:layer v:name="Lien" v:index="0"/>
		<g id="group20-1" transform="translate(178.149,-683.813)" v:mID="20" v:groupContext="group">
			<v:userDefs>
				<v:ud v:nameU="visVersion" v:prompt="" v:val="VT0(15):26"/>
			</v:userDefs>
			<title>État</title>
			<g id="shape20-2" v:mID="20" v:groupContext="groupContent">
				<rect x="0" y="766.83" width="74.4904" height="59.2038" rx="8.50394" ry="8.50394" class="st1"/>
			</g>
			<g id="shape21-4" v:mID="21" v:groupContext="shape" transform="translate(0,-22.4)">
				<title>Feuille.21</title>
				<desc>short or long option</desc>
				<v:userDefs>
					<v:ud v:nameU="UmlRole" v:prompt="" v:val="VT4(Title)"/>
				</v:userDefs>
				<v:textBlock v:margins="rect(4,4,4,4)" v:tabSpace="42.5197"/>
				<v:textRect cx="37.2452" cy="807.632" width="74.5" height="36.8038"/>
				<path d="M8.5 826.03 L65.99 826.03 A8.50394 8.50394 -180 0 0 74.49 817.53 L74.49 797.73 A8.50394 8.50394 -180 0 0
							 65.99 789.23 L8.5 789.23 A8.50394 8.50394 -180 0 0 0 797.73 L0 817.53 A8.50394 8.50394 -180 0 0 8.5
							 826.03 Z" class="st2"/>
				<text x="5.36" y="804.03" class="st3" v:langID="1036"><v:paragraph v:horizAlign="1"/><v:tabList/>short or long<v:newlineChar/><tspan
							x="20.8" dy="1.2em" class="st4">option</tspan></text>			</g>
			<g id="shape22-8" v:mID="22" v:groupContext="shape">
				<title>Feuille.22</title>
				<v:userDefs>
					<v:ud v:nameU="UmlRole" v:prompt="" v:val="VT4(Body)"/>
				</v:userDefs>
				<path d="M8.5 826.03 L65.99 826.03 A8.50394 8.50394 -180 0 0 74.49 817.53 L74.49 812.14 A8.50394 8.50394 -180 0 0
							 65.99 803.63 L8.5 803.63 A8.50394 8.50394 -180 0 0 0 812.14 L0 817.53 A8.50394 8.50394 -180 0 0 8.5
							 826.03 Z" class="st5"/>
			</g>
		</g>
		<g id="shape27-10" v:mID="27" v:groupContext="shape" v:layerMember="0" transform="translate(252.639,-706.328)">
			<title>Lien dynamique.27</title>
			<desc>«sopt»</desc>
			<v:textBlock v:margins="rect(4,4,4,4)" v:tabSpace="42.5197"/>
			<v:textRect cx="34.7049" cy="818.947" width="40" height="17.6036"/>
			<path d="M0 818.95 C15.52 818.95 44.92 818.95 63.37 818.95" class="st6"/>
			<rect v:rectContext="textBkgnd" x="23.4921" y="814.148" width="22.4256" height="9.59985" class="st8"/>
			<text x="23.49" y="821.35" class="st9" v:langID="1036"><v:paragraph v:horizAlign="1"/><v:tabList/>«sopt»</text>		</g>
		<g id="group24-18" transform="translate(322.049,-691.013)" v:mID="24" v:groupContext="group">
			<v:userDefs>
				<v:ud v:nameU="visVersion" v:prompt="" v:val="VT0(15):26"/>
			</v:userDefs>
			<title>État.24</title>
			<g id="shape24-19" v:mID="24" v:groupContext="groupContent">
				<rect x="0" y="781.23" width="72.4222" height="44.8037" rx="8.50394" ry="8.50394" class="st1"/>
			</g>
			<g id="shape25-21" v:mID="25" v:groupContext="shape" transform="translate(0,-22.4)">
				<title>Feuille.25</title>
				<desc>short option</desc>
				<v:userDefs>
					<v:ud v:nameU="UmlRole" v:prompt="" v:val="VT4(Title)"/>
				</v:userDefs>
				<v:textBlock v:margins="rect(4,4,4,4)" v:tabSpace="42.5197"/>
				<v:textRect cx="36.2111" cy="814.832" width="72.43" height="22.4037"/>
				<path d="M8.5 826.03 L63.92 826.03 A8.50394 8.50394 -180 0 0 72.42 817.53 L72.42 812.13 A8.50394 8.50394 -180 0 0
							 63.92 803.63 L8.5 803.63 A8.50394 8.50394 -180 0 0 0 812.13 L0 817.53 A8.50394 8.50394 -180 0 0 8.5
							 826.03 Z" class="st2"/>
				<text x="5.36" y="818.43" class="st3" v:langID="1036"><v:paragraph v:horizAlign="1"/><v:tabList/>short option</text>			</g>
			<g id="shape26-24" v:mID="26" v:groupContext="shape">
				<title>Feuille.26</title>
				<v:userDefs>
					<v:ud v:nameU="UmlRole" v:prompt="" v:val="VT4(Body)"/>
				</v:userDefs>
				<path d="M8.5 826.03 L63.92 826.03 A8.50394 8.50394 -180 0 0 72.42 817.53 L72.42 812.14 A8.50394 8.50394 -180 0 0
							 63.92 803.63 L8.5 803.63 A8.50394 8.50394 -180 0 0 0 812.14 L0 817.53 A8.50394 8.50394 -180 0 0 8.5
							 826.03 Z" class="st5"/>
			</g>
		</g>
		<g id="shape31-26" v:mID="31" v:groupContext="shape" v:layerMember="0" transform="translate(351.173,-691.013)">
			<title>Lien dynamique.31</title>
			<desc>/ /</desc>
			<v:textBlock v:margins="rect(4,4,4,4)" v:tabSpace="42.5197"/>
			<v:textRect cx="7.08661" cy="841.41" width="40" height="17.6036"/>
			<path d="M7.09 826.03 C7.09 832.03 7.09 842.69 7.09 850.75" class="st6"/>
			<rect v:rectContext="textBkgnd" x="3.09232" y="836.61" width="7.98843" height="9.59985" class="st8"/>
			<text x="3.09" y="843.81" class="st9" v:langID="1036"><v:paragraph v:horizAlign="1"/><v:tabList/>/ /</text>		</g>
		<g id="group28-33" transform="translate(321.826,-601.058)" v:mID="28" v:groupContext="group">
			<v:userDefs>
				<v:ud v:nameU="visVersion" v:prompt="" v:val="VT0(15):26"/>
			</v:userDefs>
			<title>État.28</title>
			<g id="shape28-34" v:mID="28" v:groupContext="groupContent">
				<rect x="0" y="766.83" width="72.8677" height="59.2038" rx="8.50394" ry="8.50394" class="st1"/>
			</g>
			<g id="shape29-36" v:mID="29" v:groupContext="shape" transform="translate(0,-22.4)">
				<title>Feuille.29</title>
				<desc>argument or hyphens</desc>
				<v:userDefs>
					<v:ud v:nameU="UmlRole" v:prompt="" v:val="VT4(Title)"/>
				</v:userDefs>
				<v:textBlock v:margins="rect(4,4,4,4)" v:tabSpace="42.5197"/>
				<v:textRect cx="36.4339" cy="807.632" width="72.87" height="36.8038"/>
				<path d="M8.5 826.03 L64.36 826.03 A8.50394 8.50394 -180 0 0 72.87 817.53 L72.87 797.73 A8.50394 8.50394 -180 0 0
							 64.36 789.23 L8.5 789.23 A8.50394 8.50394 -180 0 0 0 797.73 L0 817.53 A8.50394 8.50394 -180 0 0 8.5
							 826.03 Z" class="st2"/>
				<text x="5.36" y="804.03" class="st3" v:langID="1036"><v:paragraph v:horizAlign="1"/><v:tabList/>argument or<v:newlineChar/><tspan
							x="15.3" dy="1.2em" class="st4">hyphens</tspan></text>			</g>
			<g id="shape30-40" v:mID="30" v:groupContext="shape">
				<title>Feuille.30</title>
				<v:userDefs>
					<v:ud v:nameU="UmlRole" v:prompt="" v:val="VT4(Body)"/>
				</v:userDefs>
				<path d="M8.5 826.03 L64.36 826.03 A8.50394 8.50394 -180 0 0 72.87 817.53 L72.87 812.14 A8.50394 8.50394 -180 0 0
							 64.36 803.63 L8.5 803.63 A8.50394 8.50394 -180 0 0 0 812.14 L0 817.53 A8.50394 8.50394 -180 0 0 8.5
							 826.03 Z" class="st5"/>
			</g>
		</g>
		<g id="shape35-42" v:mID="35" v:groupContext="shape" v:layerMember="0" transform="translate(351.173,-601.058)">
			<title>Lien dynamique.35</title>
			<desc>«arg»</desc>
			<v:textBlock v:margins="rect(4,4,4,4)" v:tabSpace="42.5197"/>
			<v:textRect cx="7.08661" cy="836.709" width="40" height="17.6036"/>
			<path d="M7.09 826.03 C7.09 829.75 7.09 836.05 7.09 841.34" class="st6"/>
			<rect v:rectContext="textBkgnd" x="-2.20446" y="831.909" width="18.582" height="9.59985" class="st10"/>
			<text x="-2.2" y="839.11" class="st9" v:langID="1036"><v:paragraph v:horizAlign="1"/><v:tabList/>«arg»</text>		</g>
		<g id="group32-49" transform="translate(322.049,-520.505)" v:mID="32" v:groupContext="group">
			<v:userDefs>
				<v:ud v:nameU="visVersion" v:prompt="" v:val="VT0(15):26"/>
			</v:userDefs>
			<title>État.32</title>
			<g id="shape32-50" v:mID="32" v:groupContext="groupContent">
				<rect x="0" y="766.83" width="72.4222" height="59.2038" rx="8.50394" ry="8.50394" class="st1"/>
			</g>
			<g id="shape33-52" v:mID="33" v:groupContext="shape" transform="translate(0,-22.4)">
				<title>Feuille.33</title>
				<desc>short option plus arg</desc>
				<v:userDefs>
					<v:ud v:nameU="UmlRole" v:prompt="" v:val="VT4(Title)"/>
				</v:userDefs>
				<v:textBlock v:margins="rect(4,4,4,4)" v:tabSpace="42.5197"/>
				<v:textRect cx="36.2111" cy="807.632" width="72.43" height="36.8038"/>
				<path d="M8.5 826.03 L63.92 826.03 A8.50394 8.50394 -180 0 0 72.42 817.53 L72.42 797.73 A8.50394 8.50394 -180 0 0
							 63.92 789.23 L8.5 789.23 A8.50394 8.50394 -180 0 0 0 797.73 L0 817.53 A8.50394 8.50394 -180 0 0 8.5
							 826.03 Z" class="st2"/>
				<text x="5.36" y="804.03" class="st3" v:langID="1036"><v:paragraph v:horizAlign="1"/><v:tabList/>short option<v:newlineChar/><tspan
							x="16.61" dy="1.2em" class="st4">plus arg</tspan></text>			</g>
			<g id="shape34-56" v:mID="34" v:groupContext="shape">
				<title>Feuille.34</title>
				<v:userDefs>
					<v:ud v:nameU="UmlRole" v:prompt="" v:val="VT4(Body)"/>
				</v:userDefs>
				<path d="M8.5 826.03 L63.92 826.03 A8.50394 8.50394 -180 0 0 72.42 817.53 L72.42 812.14 A8.50394 8.50394 -180 0 0
							 63.92 803.63 L8.5 803.63 A8.50394 8.50394 -180 0 0 0 812.14 L0 817.53 A8.50394 8.50394 -180 0 0 8.5
							 826.03 Z" class="st5"/>
			</g>
		</g>
		<g id="group36-58" transform="translate(464.559,-601.058)" v:mID="36" v:groupContext="group">
			<v:userDefs>
				<v:ud v:nameU="visVersion" v:prompt="" v:val="VT0(15):26"/>
			</v:userDefs>
			<title>État.36</title>
			<g id="shape36-59" v:mID="36" v:groupContext="groupContent">
				<rect x="0" y="766.83" width="70.8661" height="59.2038" rx="8.50394" ry="8.50394" class="st1"/>
			</g>
			<g id="shape37-61" v:mID="37" v:groupContext="shape" transform="translate(0,-22.4)">
				<title>Feuille.37</title>
				<desc>expecting argument</desc>
				<v:userDefs>
					<v:ud v:nameU="UmlRole" v:prompt="" v:val="VT4(Title)"/>
				</v:userDefs>
				<v:textBlock v:margins="rect(4,4,4,4)" v:tabSpace="42.5197"/>
				<v:textRect cx="35.4331" cy="807.632" width="70.87" height="36.8038"/>
				<path d="M8.5 826.03 L62.36 826.03 A8.50394 8.50394 -180 0 0 70.87 817.53 L70.87 797.73 A8.50394 8.50394 -180 0 0
							 62.36 789.23 L8.5 789.23 A8.50394 8.50394 -180 0 0 -0 797.73 L0 817.53 A8.50394 8.50394 -180 0 0 8.5
							 826.03 Z" class="st2"/>
				<text x="11.29" y="804.03" class="st3" v:langID="1036"><v:paragraph v:horizAlign="1"/><v:tabList/>expecting<v:newlineChar/><tspan
							x="11.07" dy="1.2em" class="st4">argument</tspan></text>			</g>
			<g id="shape38-65" v:mID="38" v:groupContext="shape">
				<title>Feuille.38</title>
				<v:userDefs>
					<v:ud v:nameU="UmlRole" v:prompt="" v:val="VT4(Body)"/>
				</v:userDefs>
				<path d="M8.5 826.03 L62.36 826.03 A8.50394 8.50394 -180 0 0 70.87 817.53 L70.87 812.14 A8.50394 8.50394 -180 0 0
							 62.36 803.63 L8.5 803.63 A8.50394 8.50394 -180 0 0 -0 812.14 L0 817.53 A8.50394 8.50394 -180 0 0 8.5
							 826.03 Z" class="st5"/>
			</g>
		</g>
		<g id="group40-67" transform="translate(313.292,-446.051)" v:mID="40" v:groupContext="group">
			<v:userDefs>
				<v:ud v:nameU="visVersion" v:prompt="" v:val="VT0(15):26"/>
			</v:userDefs>
			<title>État.40</title>
			<g id="shape40-68" v:mID="40" v:groupContext="groupContent">
				<rect x="0" y="781.23" width="89.9363" height="44.8037" rx="8.50394" ry="8.50394" class="st1"/>
			</g>
			<g id="shape41-70" v:mID="41" v:groupContext="shape" transform="translate(0,-22.4)">
				<title>Feuille.41</title>
				<desc>expecting space</desc>
				<v:userDefs>
					<v:ud v:nameU="UmlRole" v:prompt="" v:val="VT4(Title)"/>
				</v:userDefs>
				<v:textBlock v:margins="rect(4,4,4,4)" v:tabSpace="42.5197"/>
				<v:textRect cx="44.9682" cy="814.832" width="89.94" height="22.4037"/>
				<path d="M8.5 826.03 L81.43 826.03 A8.50394 8.50394 -180 0 0 89.94 817.53 L89.94 812.13 A8.50394 8.50394 -180 0 0
							 81.43 803.63 L8.5 803.63 A8.50394 8.50394 -180 0 0 0 812.13 L0 817.53 A8.50394 8.50394 -180 0 0 8.5
							 826.03 Z" class="st2"/>
				<text x="5.36" y="818.43" class="st3" v:langID="1036"><v:paragraph v:horizAlign="1"/><v:tabList/>expecting space</text>			</g>
			<g id="shape42-73" v:mID="42" v:groupContext="shape">
				<title>Feuille.42</title>
				<v:userDefs>
					<v:ud v:nameU="UmlRole" v:prompt="" v:val="VT4(Body)"/>
				</v:userDefs>
				<path d="M8.5 826.03 L81.43 826.03 A8.50394 8.50394 -180 0 0 89.94 817.53 L89.94 812.14 A8.50394 8.50394 -180 0 0
							 81.43 803.63 L8.5 803.63 A8.50394 8.50394 -180 0 0 0 812.14 L0 817.53 A8.50394 8.50394 -180 0 0 8.5
							 826.03 Z" class="st5"/>
			</g>
		</g>
		<g id="shape47-75" v:mID="47" v:groupContext="shape" v:layerMember="0" transform="translate(351.173,-446.051)">
			<title>Lien dynamique.47</title>
			<desc>/ /</desc>
			<v:textBlock v:margins="rect(4,4,4,4)" v:tabSpace="42.5197"/>
			<v:textRect cx="7.08661" cy="837.259" width="40" height="17.6036"/>
			<path d="M7.09 826.03 C7.09 830.02 7.09 836.82 7.09 842.44" class="st6"/>
			<rect v:rectContext="textBkgnd" x="3.09232" y="832.459" width="7.98843" height="9.59985" class="st10"/>
			<text x="3.09" y="839.66" class="st9" v:langID="1036"><v:paragraph v:horizAlign="1"/><v:tabList/>/ /</text>		</g>
		<g id="group44-82" transform="translate(322.827,-364.397)" v:mID="44" v:groupContext="group">
			<v:userDefs>
				<v:ud v:nameU="visVersion" v:prompt="" v:val="VT0(15):26"/>
			</v:userDefs>
			<title>État.44</title>
			<g id="shape44-83" v:mID="44" v:groupContext="groupContent">
				<rect x="0" y="766.83" width="70.8661" height="59.2038" rx="8.50394" ry="8.50394" class="st1"/>
			</g>
			<g id="shape45-85" v:mID="45" v:groupContext="shape" transform="translate(0,-22.4)">
				<title>Feuille.45</title>
				<desc>expecting hyphen 1</desc>
				<v:userDefs>
					<v:ud v:nameU="UmlRole" v:prompt="" v:val="VT4(Title)"/>
				</v:userDefs>
				<v:textBlock v:margins="rect(4,4,4,4)" v:tabSpace="42.5197"/>
				<v:textRect cx="35.4331" cy="807.632" width="70.87" height="36.8038"/>
				<path d="M8.5 826.03 L62.36 826.03 A8.50394 8.50394 -180 0 0 70.87 817.53 L70.87 797.73 A8.50394 8.50394 -180 0 0
							 62.36 789.23 L8.5 789.23 A8.50394 8.50394 -180 0 0 -0 797.73 L0 817.53 A8.50394 8.50394 -180 0 0 8.5
							 826.03 Z" class="st2"/>
				<text x="11.29" y="804.03" class="st3" v:langID="1036"><v:paragraph v:horizAlign="1"/><v:tabList/>expecting<v:newlineChar/><tspan
							x="12.29" dy="1.2em" class="st4">hyphen </tspan>1</text>			</g>
			<g id="shape46-89" v:mID="46" v:groupContext="shape">
				<title>Feuille.46</title>
				<v:userDefs>
					<v:ud v:nameU="UmlRole" v:prompt="" v:val="VT4(Body)"/>
				</v:userDefs>
				<path d="M8.5 826.03 L62.36 826.03 A8.50394 8.50394 -180 0 0 70.87 817.53 L70.87 812.14 A8.50394 8.50394 -180 0 0
							 62.36 803.63 L8.5 803.63 A8.50394 8.50394 -180 0 0 -0 812.14 L0 817.53 A8.50394 8.50394 -180 0 0 8.5
							 826.03 Z" class="st5"/>
			</g>
		</g>
		<g id="shape51-91" v:mID="51" v:groupContext="shape" v:layerMember="0" transform="translate(351.173,-364.397)">
			<title>Lien dynamique.51</title>
			<desc>/-/</desc>
			<v:textBlock v:margins="rect(4,4,4,4)" v:tabSpace="42.5197"/>
			<v:textRect cx="7.08661" cy="833.659" width="40" height="17.6036"/>
			<path d="M7.09 826.03 C7.09 828.29 7.09 831.89 7.09 835.24" class="st6"/>
			<rect v:rectContext="textBkgnd" x="2.77207" y="828.859" width="8.62894" height="9.59985" class="st8"/>
			<text x="2.77" y="836.06" class="st9" v:langID="1036"><v:paragraph v:horizAlign="1"/><v:tabList/>/-/</text>		</g>
		<g id="group48-98" transform="translate(322.827,-289.942)" v:mID="48" v:groupContext="group">
			<v:userDefs>
				<v:ud v:nameU="visVersion" v:prompt="" v:val="VT0(15):26"/>
			</v:userDefs>
			<title>État.48</title>
			<g id="shape48-99" v:mID="48" v:groupContext="groupContent">
				<rect x="0" y="766.83" width="70.8661" height="59.2038" rx="8.50394" ry="8.50394" class="st1"/>
			</g>
			<g id="shape49-101" v:mID="49" v:groupContext="shape" transform="translate(0,-22.4)">
				<title>Feuille.49</title>
				<desc>expecting hyphen 2</desc>
				<v:userDefs>
					<v:ud v:nameU="UmlRole" v:prompt="" v:val="VT4(Title)"/>
				</v:userDefs>
				<v:textBlock v:margins="rect(4,4,4,4)" v:tabSpace="42.5197"/>
				<v:textRect cx="35.4331" cy="807.632" width="70.87" height="36.8038"/>
				<path d="M8.5 826.03 L62.36 826.03 A8.50394 8.50394 -180 0 0 70.87 817.53 L70.87 797.73 A8.50394 8.50394 -180 0 0
							 62.36 789.23 L8.5 789.23 A8.50394 8.50394 -180 0 0 -0 797.73 L0 817.53 A8.50394 8.50394 -180 0 0 8.5
							 826.03 Z" class="st2"/>
				<text x="11.29" y="804.03" class="st3" v:langID="1036"><v:paragraph v:horizAlign="1"/><v:tabList/>expecting<v:newlineChar/><tspan
							x="12.29" dy="1.2em" class="st4">hyphen </tspan>2</text>			</g>
			<g id="shape50-105" v:mID="50" v:groupContext="shape">
				<title>Feuille.50</title>
				<v:userDefs>
					<v:ud v:nameU="UmlRole" v:prompt="" v:val="VT4(Body)"/>
				</v:userDefs>
				<path d="M8.5 826.03 L62.36 826.03 A8.50394 8.50394 -180 0 0 70.87 817.53 L70.87 812.14 A8.50394 8.50394 -180 0 0
							 62.36 803.63 L8.5 803.63 A8.50394 8.50394 -180 0 0 -0 812.14 L0 817.53 A8.50394 8.50394 -180 0 0 8.5
							 826.03 Z" class="st5"/>
			</g>
		</g>
		<g id="shape55-107" v:mID="55" v:groupContext="shape" v:layerMember="0" transform="translate(358.26,-289.942)">
			<title>Lien dynamique.55</title>
			<desc>/-/</desc>
			<v:textBlock v:margins="rect(4,4,4,4)" v:tabSpace="42.5197"/>
			<v:textRect cx="-47.923" cy="810.537" width="40" height="17.6036"/>
			<path d="M0 826.03 C0 833.12 -9.23 833.12 -16.52 833.12 C-26.01 833.12 -32.2 833.12 -36.07 827.97 C-42.52 819.37 -42.52
						 796.43 -107.43 796.43" class="st11"/>
			<rect v:rectContext="textBkgnd" x="-52.2376" y="805.738" width="8.62894" height="9.59985" class="st10"/>
			<text x="-52.24" y="812.94" class="st9" v:langID="1036"><v:paragraph v:horizAlign="1"/><v:tabList/>/-/</text>		</g>
		<g id="group52-115" transform="translate(179.961,-289.942)" v:mID="52" v:groupContext="group">
			<v:userDefs>
				<v:ud v:nameU="visVersion" v:prompt="" v:val="VT0(15):26"/>
			</v:userDefs>
			<title>État.52</title>
			<g id="shape52-116" v:mID="52" v:groupContext="groupContent">
				<rect x="0" y="766.83" width="70.8661" height="59.2038" rx="8.50394" ry="8.50394" class="st1"/>
			</g>
			<g id="shape53-118" v:mID="53" v:groupContext="shape" transform="translate(0,-22.4)">
				<title>Feuille.53</title>
				<desc>expecting long option</desc>
				<v:userDefs>
					<v:ud v:nameU="UmlRole" v:prompt="" v:val="VT4(Title)"/>
				</v:userDefs>
				<v:textBlock v:margins="rect(4,4,4,4)" v:tabSpace="42.5197"/>
				<v:textRect cx="35.4331" cy="807.632" width="70.87" height="36.8038"/>
				<path d="M8.5 826.03 L62.36 826.03 A8.50394 8.50394 -180 0 0 70.87 817.53 L70.87 797.73 A8.50394 8.50394 -180 0 0
							 62.36 789.23 L8.5 789.23 A8.50394 8.50394 -180 0 0 -0 797.73 L0 817.53 A8.50394 8.50394 -180 0 0 8.5
							 826.03 Z" class="st2"/>
				<text x="11.29" y="804.03" class="st3" v:langID="1036"><v:paragraph v:horizAlign="1"/><v:tabList/>expecting<v:newlineChar/><tspan
							x="6.87" dy="1.2em" class="st4">long option</tspan></text>			</g>
			<g id="shape54-122" v:mID="54" v:groupContext="shape">
				<title>Feuille.54</title>
				<v:userDefs>
					<v:ud v:nameU="UmlRole" v:prompt="" v:val="VT4(Body)"/>
				</v:userDefs>
				<path d="M8.5 826.03 L62.36 826.03 A8.50394 8.50394 -180 0 0 70.87 817.53 L70.87 812.14 A8.50394 8.50394 -180 0 0
							 62.36 803.63 L8.5 803.63 A8.50394 8.50394 -180 0 0 -0 812.14 L0 817.53 A8.50394 8.50394 -180 0 0 8.5
							 826.03 Z" class="st5"/>
			</g>
		</g>
		<g id="shape63-124" v:mID="63" v:groupContext="shape" v:layerMember="0" transform="translate(208.307,-289.942)">
			<title>Lien dynamique.63</title>
			<desc>«lopt»</desc>
			<v:textBlock v:margins="rect(4,4,4,4)" v:tabSpace="42.5197"/>
			<v:textRect cx="7.08661" cy="836.955" width="40" height="17.6036"/>
			<path d="M7.09 826.03 C7.09 829.87 7.09 836.4 7.09 841.84" class="st6"/>
			<rect v:rectContext="textBkgnd" x="-3.4797" y="832.155" width="21.1325" height="9.59985" class="st8"/>
			<text x="-3.48" y="839.36" class="st9" v:langID="1036"><v:paragraph v:horizAlign="1"/><v:tabList/>«lopt»</text>		</g>
		<g id="group60-131" transform="translate(157.556,-223.296)" v:mID="60" v:groupContext="group">
			<v:userDefs>
				<v:ud v:nameU="visVersion" v:prompt="" v:val="VT0(15):26"/>
			</v:userDefs>
			<title>État.60</title>
			<g id="shape60-132" v:mID="60" v:groupContext="groupContent">
				<rect x="0" y="781.23" width="115.676" height="44.8037" rx="8.50394" ry="8.50394" class="st1"/>
			</g>
			<g id="shape61-134" v:mID="61" v:groupContext="shape" transform="translate(0,-22.4)">
				<title>Feuille.61</title>
				<desc>long option (+short?)</desc>
				<v:userDefs>
					<v:ud v:nameU="UmlRole" v:prompt="" v:val="VT4(Title)"/>
				</v:userDefs>
				<v:textBlock v:margins="rect(4,4,4,4)" v:tabSpace="42.5197"/>
				<v:textRect cx="57.8382" cy="814.832" width="115.68" height="22.4037"/>
				<path d="M8.5 826.03 L107.17 826.03 A8.50394 8.50394 -180 0 0 115.68 817.53 L115.68 812.13 A8.50394 8.50394 -180
							 0 0 107.17 803.63 L8.5 803.63 A8.50394 8.50394 -180 0 0 0 812.13 L0 817.53 A8.50394 8.50394 -180 0 0
							 8.5 826.03 Z" class="st2"/>
				<text x="5.36" y="818.43" class="st3" v:langID="1036"><v:paragraph v:horizAlign="1"/><v:tabList/>long option (+short?)</text>			</g>
			<g id="shape62-137" v:mID="62" v:groupContext="shape">
				<title>Feuille.62</title>
				<v:userDefs>
					<v:ud v:nameU="UmlRole" v:prompt="" v:val="VT4(Body)"/>
				</v:userDefs>
				<path d="M8.5 826.03 L107.17 826.03 A8.50394 8.50394 -180 0 0 115.68 817.53 L115.68 812.14 A8.50394 8.50394 -180
							 0 0 107.17 803.63 L8.5 803.63 A8.50394 8.50394 -180 0 0 0 812.14 L0 817.53 A8.50394 8.50394 -180 0 0
							 8.5 826.03 Z" class="st5"/>
			</g>
		</g>
		<g id="shape64-139" v:mID="64" v:groupContext="shape" v:layerMember="0" transform="translate(208.307,-683.813)">
			<title>Lien dynamique.64</title>
			<desc>/-/</desc>
			<v:textBlock v:margins="rect(4,4,4,4)" v:tabSpace="42.5197"/>
			<v:textRect cx="7.08661" cy="993.367" width="40" height="17.6036"/>
			<path d="M7.09 826.03 L7.09 1154.66" class="st6"/>
			<rect v:rectContext="textBkgnd" x="2.77207" y="988.568" width="8.62894" height="9.59985" class="st8"/>
			<text x="2.77" y="995.77" class="st9" v:langID="1036"><v:paragraph v:horizAlign="1"/><v:tabList/>/-/</text>		</g>
		<g id="shape68-146" v:mID="68" v:groupContext="shape" v:layerMember="0" transform="translate(208.307,-223.296)">
			<title>Lien dynamique.68</title>
			<desc>/=| /</desc>
			<v:textBlock v:margins="rect(4,4,4,4)" v:tabSpace="42.5197"/>
			<v:textRect cx="7.08661" cy="840.555" width="40" height="17.6036"/>
			<path d="M7.09 826.03 C7.09 831.61 7.09 841.47 7.09 849.04" class="st6"/>
			<rect v:rectContext="textBkgnd" x="-0.741633" y="835.756" width="15.6566" height="9.59985" class="st8"/>
			<text x="-0.74" y="842.96" class="st9" v:langID="1036"><v:paragraph v:horizAlign="1"/><v:tabList/>/=| /</text>		</g>
		<g id="group65-153" transform="translate(176.593,-149.45)" v:mID="65" v:groupContext="group">
			<v:userDefs>
				<v:ud v:nameU="visVersion" v:prompt="" v:val="VT0(15):26"/>
			</v:userDefs>
			<title>État.65</title>
			<g id="shape65-154" v:mID="65" v:groupContext="groupContent">
				<rect x="0" y="781.23" width="77.6023" height="44.8037" rx="8.50394" ry="8.50394" class="st1"/>
			</g>
			<g id="shape66-156" v:mID="66" v:groupContext="shape" transform="translate(0,-22.4)">
				<title>Feuille.66</title>
				<desc>expecting arg</desc>
				<v:userDefs>
					<v:ud v:nameU="UmlRole" v:prompt="" v:val="VT4(Title)"/>
				</v:userDefs>
				<v:textBlock v:margins="rect(4,4,4,4)" v:tabSpace="42.5197"/>
				<v:textRect cx="38.8011" cy="814.832" width="77.61" height="22.4037"/>
				<path d="M8.5 826.03 L69.1 826.03 A8.50394 8.50394 -180 0 0 77.6 817.53 L77.6 812.13 A8.50394 8.50394 -180 0 0 69.1
							 803.63 L8.5 803.63 A8.50394 8.50394 -180 0 0 0 812.13 L0 817.53 A8.50394 8.50394 -180 0 0 8.5 826.03
							 Z" class="st2"/>
				<text x="5.36" y="818.43" class="st3" v:langID="1036"><v:paragraph v:horizAlign="1"/><v:tabList/>expecting arg</text>			</g>
			<g id="shape67-159" v:mID="67" v:groupContext="shape">
				<title>Feuille.67</title>
				<v:userDefs>
					<v:ud v:nameU="UmlRole" v:prompt="" v:val="VT4(Body)"/>
				</v:userDefs>
				<path d="M8.5 826.03 L69.1 826.03 A8.50394 8.50394 -180 0 0 77.6 817.53 L77.6 812.14 A8.50394 8.50394 -180 0 0 69.1
							 803.63 L8.5 803.63 A8.50394 8.50394 -180 0 0 0 812.14 L0 817.53 A8.50394 8.50394 -180 0 0 8.5 826.03
							 Z" class="st5"/>
			</g>
		</g>
		<g id="group72-161" transform="translate(157.556,-21.7305)" v:mID="72" v:groupContext="group">
			<v:userDefs>
				<v:ud v:nameU="visVersion" v:prompt="" v:val="VT0(15):26"/>
			</v:userDefs>
			<title>État.72</title>
			<g id="shape72-162" v:mID="72" v:groupContext="groupContent">
				<rect x="0" y="727.357" width="115.676" height="98.6773" rx="8.50394" ry="8.50394" class="st1"/>
			</g>
			<g id="shape73-164" v:mID="73" v:groupContext="shape" transform="translate(0,-61.8735)">
				<title>Feuille.73</title>
				<desc>long option plus arg (+short ?)</desc>
				<v:userDefs>
					<v:ud v:nameU="UmlRole" v:prompt="" v:val="VT4(Title)"/>
				</v:userDefs>
				<v:textBlock v:margins="rect(4,4,4,4)" v:tabSpace="42.5197"/>
				<v:textRect cx="57.8382" cy="807.632" width="115.68" height="36.8038"/>
				<path d="M8.5 826.03 L107.17 826.03 A8.50394 8.50394 -180 0 0 115.68 817.53 L115.68 797.73 A8.50394 8.50394 -180
							 0 0 107.17 789.23 L8.5 789.23 A8.50394 8.50394 -180 0 0 0 797.73 L0 817.53 A8.50394 8.50394 -180 0 0
							 8.5 826.03 Z" class="st2"/>
				<text x="8.31" y="804.03" class="st3" v:langID="1036"><v:paragraph v:horizAlign="1"/><v:tabList/>long option plus arg<v:newlineChar/><tspan
							x="33.92" dy="1.2em" class="st4">(+</tspan>short ?)</text>			</g>
			<g id="shape74-168" v:mID="74" v:groupContext="shape">
				<title>Feuille.74</title>
				<desc>If we already have an argument, check if the one we just got ...</desc>
				<v:userDefs>
					<v:ud v:nameU="UmlRole" v:prompt="" v:val="VT4(Body)"/>
				</v:userDefs>
				<v:textBlock v:margins="rect(4,4,4,4)" v:tabSpace="42.5197"/>
				<v:textRect cx="57.8382" cy="796.963" width="115.68" height="65.604"/>
				<path d="M8.5 826.03 L107.17 826.03 A8.50394 8.50394 -180 0 0 115.68 817.53 L115.68 772.66 A8.50394 8.50394 -180
							 0 0 107.17 764.16 L8.5 764.16 A8.50394 8.50394 -180 0 0 0 772.66 L0 817.53 A8.50394 8.50394 -180 0 0
							 8.5 826.03 Z" class="st5"/>
				<text x="4" y="778.96" class="st12" v:langID="1036"><v:paragraph/><v:tabList/>If we already have an <tspan x="4"
							dy="1.2em" class="st4">argument</tspan>, check if <tspan x="4" dy="1.2em" class="st4">the one we just got is </tspan><tspan
							x="4" dy="1.2em" class="st4">the same</tspan></text>			</g>
		</g>
		<g id="shape90-174" v:mID="90" v:groupContext="shape" v:layerMember="0" transform="translate(208.307,-149.45)">
			<title>Lien dynamique.90</title>
			<desc>«arg»</desc>
			<v:textBlock v:margins="rect(4,4,4,4)" v:tabSpace="42.5197"/>
			<v:textRect cx="7.08661" cy="840.555" width="40" height="17.6036"/>
			<path d="M7.09 826.03 C7.09 831.61 7.09 841.47 7.09 849.04" class="st6"/>
			<rect v:rectContext="textBkgnd" x="-2.20446" y="835.756" width="18.582" height="9.59985" class="st10"/>
			<text x="-2.2" y="842.96" class="st9" v:langID="1036"><v:paragraph v:horizAlign="1"/><v:tabList/>«arg»</text>		</g>
		<g id="shape91-181" v:mID="91" v:groupContext="shape" v:layerMember="0" transform="translate(391.763,-713.415)">
			<title>Lien dynamique.91</title>
			<desc>/,/</desc>
			<v:textBlock v:margins="rect(4,4,4,4)" v:tabSpace="42.5197"/>
			<v:textRect cx="38.7079" cy="945.858" width="40" height="17.6036"/>
			<path d="M2.71 826.03 C38.71 826.03 38.71 887.41 38.71 948.79 C38.71 1005.09 38.71 1061.38 17.4 1069.89 L17.05 1069.96"
					class="st13"/>
			<rect v:rectContext="textBkgnd" x="34.62" y="941.058" width="8.17603" height="9.59985" class="st10"/>
			<text x="34.62" y="948.26" class="st9" v:langID="1036"><v:paragraph v:horizAlign="1"/><v:tabList/>/,/</text>		</g>
		<g id="shape92-189" v:mID="92" v:groupContext="shape" v:layerMember="0" transform="translate(394.471,-713.415)">
			<title>Lien dynamique.92</title>
			<desc>/=/</desc>
			<v:textBlock v:margins="rect(4,4,4,4)" v:tabSpace="42.5197"/>
			<v:textRect cx="68.5283" cy="830.552" width="40" height="17.6036"/>
			<path d="M0 826.03 C26.38 826.03 69.27 826.03 88.92 837.74 C103.12 846.21 105.17 860.79 105.47 873.15 L105.47 873.51"
					class="st13"/>
			<rect v:rectContext="textBkgnd" x="63.4461" y="825.752" width="10.1643" height="9.59985" class="st8"/>
			<text x="63.45" y="832.95" class="st9" v:langID="1036"><v:paragraph v:horizAlign="1"/><v:tabList/>/=/</text>		</g>
		<g id="shape93-196" v:mID="93" v:groupContext="shape" v:layerMember="0" transform="translate(499.992,-601.058)">
			<title>Lien dynamique.93</title>
			<desc>«arg»</desc>
			<v:textBlock v:margins="rect(4,4,4,4)" v:tabSpace="42.5197"/>
			<v:textRect cx="-37.7908" cy="872.807" width="40" height="17.6036"/>
			<path d="M0 826.03 C-0 838.77 0 856.2 -16.47 865.68 C-34.66 876.16 -72.97 876.92 -99.48 876.98 L-99.84 876.98"
					class="st13"/>
			<rect v:rectContext="textBkgnd" x="-47.0819" y="868.007" width="18.582" height="9.59985" class="st8"/>
			<text x="-47.08" y="875.21" class="st9" v:langID="1036"><v:paragraph v:horizAlign="1"/><v:tabList/>«arg»</text>		</g>
		<g id="shape94-203" v:mID="94" v:groupContext="shape" v:layerMember="0" transform="translate(351.173,-520.505)">
			<title>Lien dynamique.94</title>
			<desc>/,/</desc>
			<v:textBlock v:margins="rect(4,4,4,4)" v:tabSpace="42.5197"/>
			<v:textRect cx="7.08661" cy="840.859" width="40" height="17.6036"/>
			<path d="M7.09 826.03 C7.09 831.76 7.09 841.91 7.09 849.64" class="st6"/>
			<rect v:rectContext="textBkgnd" x="2.99866" y="836.059" width="8.17603" height="9.59985" class="st8"/>
			<text x="3" y="843.26" class="st9" v:langID="1036"><v:paragraph v:horizAlign="1"/><v:tabList/>/,/</text>		</g>
		<g id="shape95-210" v:mID="95" v:groupContext="shape" v:layerMember="0" transform="translate(315.351,-550.107)">
			<title>Lien dynamique.95</title>
			<desc>/ /</desc>
			<v:textBlock v:margins="rect(4,4,4,4)" v:tabSpace="42.5197"/>
			<v:textRect cx="-20.2046" cy="904.266" width="40" height="17.6036"/>
			<path d="M6.7 826.03 C-27.27 826.03 -29.19 965.04 1.61 980.71 L1.96 980.8" class="st13"/>
			<rect v:rectContext="textBkgnd" x="-24.1989" y="899.466" width="7.98843" height="9.59985" class="st8"/>
			<text x="-24.2" y="906.67" class="st9" v:langID="1036"><v:paragraph v:horizAlign="1"/><v:tabList/>/ /</text>		</g>
		<g id="shape96-217" v:mID="96" v:groupContext="shape" v:layerMember="0" transform="translate(315.24,-630.659)">
			<title>Lien dynamique.96</title>
			<desc>/-/</desc>
			<v:textBlock v:margins="rect(4,4,4,4)" v:tabSpace="42.5197"/>
			<v:textRect cx="-36.5004" cy="981.904" width="40" height="17.6036"/>
			<path d="M6.59 826.03 C-36.5 826.03 -36.5 903.8 -36.5 981.56 C-36.5 1055.64 -36.5 1129.72 1.57 1136.63 L1.93 1136.66"
					class="st13"/>
			<rect v:rectContext="textBkgnd" x="-40.8149" y="977.104" width="8.62894" height="9.59985" class="st8"/>
			<text x="-40.81" y="984.3" class="st9" v:langID="1036"><v:paragraph v:horizAlign="1"/><v:tabList/>/-/</text>		</g>
		<g id="shape97-224" v:mID="97" v:groupContext="shape" transform="translate(73.945,-696.407)">
			<title>État initial</title>
			<desc>start</desc>
			<v:userDefs>
				<v:ud v:nameU="visVersion" v:prompt="" v:val="VT0(15):26"/>
			</v:userDefs>
			<v:textBlock v:margins="rect(4,4,4,4)" v:tabSpace="42.5197"/>
			<v:textRect cx="17.0079" cy="834.836" width="34.4" height="17.6036"/>
			<ellipse cx="17.0079" cy="809.026" rx="17.0079" ry="17.0079" class="st14"/>
			<text x="6.01" y="837.24" class="st15" v:langID="1036"><v:paragraph v:horizAlign="1"/><v:tabList/>start</text>		</g>
		<g id="shape98-227" v:mID="98" v:groupContext="shape" v:layerMember="0" transform="translate(107.961,-706.328)">
			<title>Lien dynamique</title>
			<desc>/-/</desc>
			<v:textBlock v:margins="rect(4,4,4,4)" v:tabSpace="42.5197"/>
			<v:textRect cx="35.0939" cy="818.947" width="40" height="17.6036"/>
			<path d="M0 818.95 C15.71 818.95 45.49 818.95 64.15 818.95" class="st6"/>
			<rect v:rectContext="textBkgnd" x="30.7794" y="814.148" width="8.62894" height="9.59985" class="st8"/>
			<text x="30.78" y="821.35" class="st9" v:langID="1036"><v:paragraph v:horizAlign="1"/><v:tabList/>/-/</text>		</g>
		<g id="shape110-234" v:mID="110" v:groupContext="shape" v:layerMember="0" transform="translate(157.556,-71.0692)">
			<title>Lien dynamique.110</title>
			<path d="M0 826.03 C-122.45 827.43 -122.44 646.17 -122.44 546.67 C-122.44 455.38 -122.45 432.93 -89.62 428.2 L-89.26
						 428.16" class="st16"/>
		</g>
		<g id="shape109-240" v:mID="109" v:groupContext="shape" transform="translate(73.945,-452.546)">
			<title>État final</title>
			<desc>(None, lopt, None) (None, lopt, arg) (sopt, lopt, None) (sopt...</desc>
			<v:userDefs>
				<v:ud v:nameU="visVersion" v:prompt="" v:val="VT0(15):26"/>
			</v:userDefs>
			<v:textBlock v:margins="rect(4,4,4,4)" v:tabSpace="42.5197"/>
			<v:textRect cx="17.0079" cy="849.236" width="91.58" height="46.4035"/>
			<path d="M30.61 809.03 A13.6063 13.6063 -180 1 0 3.4 809.03 A13.6063 13.6063 -180 1 0 30.61 809.03 Z" class="st18"/>
			<path d="M34.02 809.03 A17.0079 17.0079 -180 1 0 0 809.03 A17.0079 17.0079 -180 1 0 34.02 809.03" class="st19"/>
			<path d="M30.61 809.03 A13.6063 13.6063 -180 1 0 3.4 809.03 A13.6063 13.6063 -180 1 0 30.61 809.03" class="st19"/>
			<text x="-22.58" y="837.24" class="st20" v:langID="1036"><v:paragraph v:horizAlign="1"/><v:tabList/>(None, lopt, None)<v:newlineChar/><tspan
						x="-22.58" dy="1.2em" class="st4">(</tspan>None, lopt,  arg)<v:newlineChar/><tspan x="-22.58" dy="1.2em"
						class="st4">(</tspan>sopt, lopt, None)<v:newlineChar/><tspan x="-22.58" dy="1.2em" class="st4">(</tspan>sopt, lopt,  arg)</text>		</g>
		<g id="shape111-248" v:mID="111" v:groupContext="shape" transform="translate(73.945,-533.099)">
			<title>État final.111</title>
			<desc>(None, lopt, None) (sopt, lopt, None) (sopt, lopt, arg)</desc>
			<v:userDefs>
				<v:ud v:nameU="visVersion" v:prompt="" v:val="VT0(15):26"/>
			</v:userDefs>
			<v:textBlock v:margins="rect(4,4,4,4)" v:tabSpace="42.5197"/>
			<v:textRect cx="17.0079" cy="844.436" width="91.58" height="36.8035"/>
			<path d="M30.61 809.03 A13.6063 13.6063 -180 1 0 3.4 809.03 A13.6063 13.6063 -180 1 0 30.61 809.03 Z" class="st18"/>
			<path d="M34.02 809.03 A17.0079 17.0079 -180 1 0 0 809.03 A17.0079 17.0079 -180 1 0 34.02 809.03" class="st19"/>
			<path d="M30.61 809.03 A13.6063 13.6063 -180 1 0 3.4 809.03 A13.6063 13.6063 -180 1 0 30.61 809.03" class="st19"/>
			<text x="-22.58" y="837.24" class="st20" v:langID="1036"><v:paragraph v:horizAlign="1"/><v:tabList/>(None, lopt, None)<v:newlineChar/><tspan
						x="-22.58" dy="1.2em" class="st4">(</tspan>sopt, lopt, None)<v:newlineChar/><tspan x="-22.58" dy="1.2em"
						class="st4">(</tspan>sopt, lopt,  arg)</text>		</g>
		<g id="shape114-255" v:mID="114" v:groupContext="shape" v:layerMember="0" transform="translate(358.26,-735.817)">
			<title>Lien dynamique.114</title>
			<path d="M0 826.03 C-0 812.29 0 794.35 -35.47 784.21 C-80.01 771.49 -180.47 771.09 -243.41 771.07 L-243.77 771.07"
					class="st16"/>
		</g>
		<g id="shape113-260" v:mID="113" v:groupContext="shape" transform="translate(74.7954,-773.768)">
			<title>État final.113</title>
			<desc>(sopt, None, None)</desc>
			<v:userDefs>
				<v:ud v:nameU="visVersion" v:prompt="" v:val="VT0(15):26"/>
			</v:userDefs>
			<v:textBlock v:margins="rect(4,4,4,4)" v:tabSpace="42.5197"/>
			<v:textRect cx="17.0079" cy="834.836" width="91.58" height="17.6036"/>
			<path d="M30.61 809.03 A13.6063 13.6063 -180 1 0 3.4 809.03 A13.6063 13.6063 -180 1 0 30.61 809.03 Z" class="st18"/>
			<path d="M34.02 809.03 A17.0079 17.0079 -180 1 0 0 809.03 A17.0079 17.0079 -180 1 0 34.02 809.03" class="st19"/>
			<path d="M30.61 809.03 A13.6063 13.6063 -180 1 0 3.4 809.03 A13.6063 13.6063 -180 1 0 30.61 809.03" class="st19"/>
			<text x="-22.58" y="837.24" class="st20" v:langID="1036"><v:paragraph v:horizAlign="1"/><v:tabList/>(sopt, None, None)</text>		</g>
		<g id="shape117-265" v:mID="117" v:groupContext="shape" transform="translate(73.945,-613.652)">
			<title>État final.117</title>
			<desc>(sopt, None, arg)</desc>
			<v:userDefs>
				<v:ud v:nameU="visVersion" v:prompt="" v:val="VT0(15):26"/>
			</v:userDefs>
			<v:textBlock v:margins="rect(4,4,4,4)" v:tabSpace="42.5197"/>
			<v:textRect cx="17.0079" cy="834.836" width="87.18" height="17.6036"/>
			<path d="M30.61 809.03 A13.6063 13.6063 -180 1 0 3.4 809.03 A13.6063 13.6063 -180 1 0 30.61 809.03 Z" class="st18"/>
			<path d="M34.02 809.03 A17.0079 17.0079 -180 1 0 0 809.03 A17.0079 17.0079 -180 1 0 34.02 809.03" class="st19"/>
			<path d="M30.61 809.03 A13.6063 13.6063 -180 1 0 3.4 809.03 A13.6063 13.6063 -180 1 0 30.61 809.03" class="st19"/>
			<text x="-20.38" y="837.24" class="st20" v:langID="1036"><v:paragraph v:horizAlign="1"/><v:tabList/>(sopt, None, arg)</text>		</g>
		<g id="shape118-270" v:mID="118" v:groupContext="shape" v:layerMember="0" transform="translate(322.049,-550.107)">
			<title>Lien dynamique.118</title>
			<path d="M0 826.03 C-36 826.03 -36 745.48 -214.09 745.48" class="st21"/>
		</g>
		<g id="shape120-276" v:mID="120" v:groupContext="shape" v:layerMember="0" transform="translate(157.556,-245.698)">
			<title>Lien dynamique.120</title>
			<path d="M0 826.03 C-51.58 826.31 -18.91 738.24 -3.32 661.56 C11.66 587.85 10.86 524.67 -43.56 521.71 L-43.92 521.7"
					class="st16"/>
		</g>
	</g>
</svg>
