<?xml version="1.0" encoding="UTF-8" standalone="no"?>
<!-- Created with Inkscape (http://www.inkscape.org/) -->

<svg
   xmlns:dc="http://purl.org/dc/elements/1.1/"
   xmlns:cc="http://creativecommons.org/ns#"
   xmlns:rdf="http://www.w3.org/1999/02/22-rdf-syntax-ns#"
   xmlns:svg="http://www.w3.org/2000/svg"
   xmlns="http://www.w3.org/2000/svg"
   xmlns:sodipodi="http://sodipodi.sourceforge.net/DTD/sodipodi-0.dtd"
   xmlns:inkscape="http://www.inkscape.org/namespaces/inkscape"
   width="200"
   height="200"
   viewBox="0 0 52.916665 52.916668"
   version="1.1"
   id="svg8"
   inkscape:version="0.92.3 (2405546, 2018-03-11)"
   sodipodi:docname="fake_icon.svg">
  <defs
     id="defs2" />
  <sodipodi:namedview
     id="base"
     pagecolor="#ffffff"
     bordercolor="#666666"
     borderopacity="1.0"
     inkscape:pageopacity="0.0"
     inkscape:pageshadow="2"
     inkscape:zoom="2.8284271"
     inkscape:cx="91.467601"
     inkscape:cy="125.73461"
     inkscape:document-units="mm"
     inkscape:current-layer="layer2"
     showgrid="true"
     units="px"
     inkscape:window-width="2560"
     inkscape:window-height="1356"
     inkscape:window-x="-8"
     inkscape:window-y="-8"
     inkscape:window-maximized="1">
    <inkscape:grid
       type="xygrid"
       id="grid4600" />
  </sodipodi:namedview>
  <metadata
     id="metadata5">
    <rdf:RDF>
      <cc:Work
         rdf:about="">
        <dc:format>image/svg+xml</dc:format>
        <dc:type
           rdf:resource="http://purl.org/dc/dcmitype/StillImage" />
        <dc:title></dc:title>
      </cc:Work>
    </rdf:RDF>
  </metadata>
  <g
     inkscape:groupmode="layer"
     id="layer2"
     inkscape:label="Layer 2">
    <rect
       style="fill:#2d3947;fill-opacity:1;stroke-width:0.2637926"
       id="rect3771"
       width="52.927528"
       height="52.92696"
       x="-0.010860494"
       y="0" />
    <rect
       style="fill:#fffff7;fill-opacity:1;stroke-width:0.21307282"
       id="rect4596"
       width="3.9687493"
       height="3.9687493"
       x="-42.333332"
       y="43.65625"
       transform="scale(-1,1)" />
    <rect
       style="fill:#fffff7;fill-opacity:1;stroke-width:0.21307282"
       id="rect4596-5"
       width="3.9687493"
       height="3.9687493"
       x="-47.624996"
       y="43.65625"
       transform="scale(-1,1)" />
    <rect
       style="fill:#fffff7;fill-opacity:1;stroke-width:0.21307282"
       id="rect4596-3"
       width="3.9687493"
       height="3.9687493"
       x="-37.041664"
       y="43.65625"
       transform="scale(-1,1)" />
    <rect
       style="fill:#fffff7;fill-opacity:1;stroke-width:0.21307282"
       id="rect4596-50"
       width="3.9687493"
       height="3.9687493"
       x="-47.625"
       y="38.364586"
       transform="scale(-1,1)" />
    <rect
       style="fill:#fffff7;fill-opacity:1;stroke-width:0.21307282"
       id="rect4596-9"
       width="3.9687493"
       height="3.9687493"
       x="-42.333332"
       y="38.364586"
       transform="scale(-1,1)" />
    <rect
       style="fill:#fffff7;fill-opacity:1;stroke-width:0.21307282"
       id="rect4596-6"
       width="3.9687493"
       height="3.9687493"
       x="-31.750002"
       y="43.65625"
       transform="scale(-1,1)" />
    <rect
       style="fill:#fffff7;fill-opacity:1;stroke-width:0.21307282"
       id="rect4596-30"
       width="3.9687493"
       height="3.9687493"
       x="-37.041668"
       y="38.364586"
       transform="scale(-1,1)" />
    <rect
       style="fill:#fffff7;fill-opacity:1;stroke-width:0.21307282"
       id="rect4596-0"
       width="3.9687493"
       height="3.9687493"
       x="-31.75"
       y="38.364582"
       transform="scale(-1,1)" />
    <rect
       style="fill:#fffff7;fill-opacity:1;stroke-width:0.21307282"
       id="rect4596-00"
       width="3.9687493"
       height="3.9687493"
       x="-47.625"
       y="33.072918"
       transform="scale(-1,1)" />
    <rect
       style="fill:#fffff7;fill-opacity:1;stroke-width:0.21307282"
       id="rect4596-98"
       width="3.9687493"
       height="3.9687493"
       x="-42.333332"
       y="33.072918"
       transform="scale(-1,1)" />
    <rect
       style="fill:#fffff7;fill-opacity:1;stroke-width:0.21307282"
       id="rect4596-98-6"
       width="3.9687493"
       height="3.9687493"
       x="-37.041668"
       y="33.072918"
       transform="scale(-1,1)" />
    <rect
       style="fill:#fffff7;fill-opacity:1;stroke-width:0.21307282"
       id="rect4596-98-1"
       width="3.9687493"
       height="3.9687493"
       x="-47.625"
       y="27.78125"
       transform="scale(-1,1)" />
    <rect
       style="fill:#fffff7;fill-opacity:1;stroke-width:0.21307282"
       id="rect4596-98-8"
       width="3.9687493"
       height="3.9687493"
       x="-42.333332"
       y="27.78125"
       transform="scale(-1,1)" />
  </g>
  <g
     inkscape:label="Layer 1"
     inkscape:groupmode="layer"
     id="layer1"
     transform="translate(0,-244.08332)">
    <path
       inkscape:connector-curvature="0"
       id="path3721"
       d="m 1.941853,257.97397 c 3.8252472,-3.84433 7.6504941,-7.68866 11.475741,-11.533 0,1.92217 0,3.84434 0,5.7665 -1.912623,1.92217 -3.8252469,3.84434 -5.7378704,5.7665 1.9126235,1.92217 3.8252474,3.84434 5.7378704,5.7665 0,1.92217 0,3.84434 0,5.7665 -3.8252469,-3.84433 -7.6504938,-7.68866 -11.475741,-11.533 z"
       style="fill:#378bba;stroke-width:0.20543455;fill-opacity:1" />
    <path
       inkscape:connector-curvature="0"
       id="path3723"
       d="m 9.3191152,257.97397 c 1.3661598,-1.37297 2.7323188,-2.74595 4.0984788,-4.11892 0,2.74595 0,5.4919 0,8.23785 -1.36616,-1.37297 -2.732319,-2.74595 -4.0984788,-4.11893 z"
       style="fill:#378bba;stroke-width:0.20543455;fill-opacity:1" />
    <path
       inkscape:connector-curvature="0"
       id="path3725"
       d="m 26.122879,257.97397 c -3.961862,-3.84433 -7.923726,-7.68866 -11.885589,-11.533 0,1.92217 0,3.84434 0,5.7665 1.912623,1.92217 3.825247,3.84434 5.737871,5.7665 -1.912624,1.92217 -3.825248,3.84434 -5.737871,5.7665 0,1.92217 0,3.84434 0,5.7665 3.961863,-3.84433 7.923727,-7.68866 11.885589,-11.533 z"
       style="fill:#30b9db;stroke-width:0.20543455" />
  </g>
</svg>
