<svg width="65" height="68" viewBox="0 0 65 68" fill="none" xmlns="http://www.w3.org/2000/svg">
<path d="M38.6271 6.11575C39.2306 3.62808 42.7694 3.62808 43.3729 6.11575C43.4635 6.48947 43.641 6.83652 43.891 7.12867C44.141 7.42081 44.4565 7.64979 44.8118 7.79697C45.167 7.94415 45.552 8.00537 45.9354 7.97565C46.3187 7.94592 46.6897 7.82609 47.018 7.62592C49.2039 6.29425 51.7072 8.79608 50.3755 10.9834C50.1756 11.3116 50.056 11.6823 50.0263 12.0654C49.9967 12.4485 50.0578 12.8333 50.2048 13.1883C50.3518 13.5433 50.5805 13.8587 50.8724 14.1087C51.1642 14.3587 51.5109 14.5363 51.8843 14.6271C54.3719 15.2306 54.3719 18.7694 51.8843 19.3729C51.5105 19.4635 51.1635 19.641 50.8713 19.891C50.5792 20.141 50.3502 20.4565 50.203 20.8118C50.0558 21.167 49.9946 21.552 50.0244 21.9354C50.0541 22.3187 50.1739 22.6897 50.3741 23.018C51.7058 25.2039 49.2039 27.7072 47.0166 26.3755C46.6884 26.1756 46.3177 26.056 45.9346 26.0263C45.5515 25.9967 45.1667 26.0578 44.8117 26.2048C44.4567 26.3518 44.1413 26.5805 43.8913 26.8724C43.6413 27.1642 43.4637 27.5109 43.3729 27.8843C42.7694 30.3719 39.2306 30.3719 38.6271 27.8843C38.5365 27.5105 38.359 27.1635 38.109 26.8713C37.859 26.5792 37.5435 26.3502 37.1882 26.203C36.833 26.0558 36.448 25.9946 36.0646 26.0244C35.6813 26.0541 35.3103 26.1739 34.982 26.3741C32.7961 27.7058 30.2928 25.2039 31.6245 23.0166C31.8244 22.6884 31.944 22.3177 31.9737 21.9346C32.0033 21.5515 31.9422 21.1667 31.7952 20.8117C31.6482 20.4567 31.4195 20.1413 31.1276 19.8913C30.8358 19.6413 30.4891 19.4637 30.1157 19.3729C27.6281 18.7694 27.6281 15.2306 30.1157 14.6271C30.4895 14.5365 30.8365 14.359 31.1287 14.109C31.4208 13.859 31.6498 13.5435 31.797 13.1882C31.9442 12.833 32.0054 12.448 31.9756 12.0646C31.9459 11.6813 31.8261 11.3103 31.6259 10.982C30.2942 8.79608 32.7961 6.29283 34.9834 7.6245C36.3944 8.48583 38.2361 7.72367 38.6271 6.11575Z" stroke="#D4B43C" stroke-width="2" stroke-linecap="round" stroke-linejoin="round"/>
<path d="M45.25 17C45.25 18.1272 44.8022 19.2082 44.0052 20.0052C43.2082 20.8022 42.1272 21.25 41 21.25C39.8728 21.25 38.7918 20.8022 37.9948 20.0052C37.1978 19.2082 36.75 18.1272 36.75 17C36.75 15.8728 37.1978 14.7918 37.9948 13.9948C38.7918 13.1978 39.8728 12.75 41 12.75C42.1272 12.75 43.2082 13.1978 44.0052 13.9948C44.8022 14.7918 45.25 15.8728 45.25 17V17Z" stroke="#D4B43C" stroke-width="2" stroke-linecap="round" stroke-linejoin="round"/>
<g clip-path="url(#clip0_24_2805)">
<path d="M33.7253 35.9828C33.0041 33.5267 36.0688 31.7573 37.8353 33.6099C38.1006 33.8883 38.4278 34.1001 38.7904 34.2281C39.153 34.3561 39.5407 34.3967 39.922 34.3465C40.3032 34.2963 40.6672 34.1569 40.9844 33.9394C41.3016 33.722 41.5629 33.4328 41.7471 33.0952C42.9744 30.849 46.3931 31.764 46.3336 34.3242C46.3245 34.7083 46.4063 35.0892 46.5722 35.4358C46.738 35.7824 46.9834 36.085 47.2882 36.319C47.593 36.5529 47.9487 36.7117 48.3265 36.7823C48.7042 36.8529 49.0932 36.8334 49.462 36.7253C51.9181 36.0041 53.6876 39.0688 51.8349 40.8353C51.5565 41.1006 51.3447 41.4278 51.2168 41.7904C51.0888 42.153 51.0482 42.5407 51.0984 42.922C51.1485 43.3032 51.288 43.6672 51.5054 43.9844C51.7229 44.3016 52.0121 44.5629 52.3496 44.7471C54.5958 45.9744 53.6808 49.3931 51.1207 49.3336C50.7365 49.3245 50.3557 49.4063 50.009 49.5722C49.6624 49.738 49.3598 49.9834 49.1259 50.2882C48.8919 50.593 48.7332 50.9488 48.6626 51.3265C48.592 51.7042 48.6115 52.0932 48.7196 52.462C49.4407 54.9181 46.376 56.6876 44.6095 54.8349C44.3443 54.5566 44.017 54.3447 43.6544 54.2168C43.2918 54.0888 42.9041 54.0482 42.5229 54.0984C42.1416 54.1485 41.7776 54.288 41.4605 54.5054C41.1433 54.7229 40.882 55.0121 40.6977 55.3496C39.4705 57.5958 36.0517 56.6808 36.1113 54.1207C36.1203 53.7365 36.0386 53.3557 35.8727 53.009C35.7068 52.6624 35.4615 52.3598 35.1567 52.1259C34.8518 51.8919 34.4961 51.7332 34.1184 51.6626C33.7407 51.592 33.3516 51.6115 32.9828 51.7196C30.5267 52.4407 28.7573 49.376 30.6099 47.6095C30.8883 47.3443 31.1001 47.017 31.2281 46.6544C31.3561 46.2918 31.3967 45.9041 31.3465 45.5229C31.2963 45.1416 31.1569 44.7776 30.9394 44.4605C30.722 44.1433 30.4327 43.882 30.0952 43.6977C27.849 42.4705 28.764 39.0517 31.3242 39.1113C32.9768 39.1517 34.1906 37.5708 33.7253 35.9828Z" stroke="#D4B43C" stroke-width="2" stroke-linecap="round" stroke-linejoin="round"/>
<path d="M44.903 42.0974C45.4666 43.0736 45.6194 44.2336 45.3276 45.3224C45.0359 46.4112 44.3236 47.3394 43.3474 47.903C42.3713 48.4666 41.2112 48.6193 40.1225 48.3276C39.0337 48.0359 38.1054 47.3236 37.5418 46.3474C36.9782 45.3713 36.8255 44.2112 37.1172 43.1224C37.409 42.0337 38.1213 41.1054 39.0974 40.5418C40.0736 39.9782 41.2337 39.8255 42.3224 40.1172C43.4112 40.409 44.3395 41.1213 44.903 42.0974V42.0974Z" stroke="#D4B43C" stroke-width="2" stroke-linecap="round" stroke-linejoin="round"/>
</g>
<path fill-rule="evenodd" clip-rule="evenodd" d="M19.533 18.389C18.887 15.737 15.113 15.737 14.467 18.389C14.3705 18.7875 14.1814 19.1576 13.9149 19.4692C13.6484 19.7808 13.3121 20.025 12.9333 20.1821C12.5546 20.3392 12.1441 20.4046 11.7353 20.373C11.3265 20.3415 10.931 20.2139 10.5808 20.0006C8.2484 18.5794 5.5794 21.2484 7.0006 23.5808C7.9186 25.087 7.1043 27.0522 5.3907 27.4687C2.737 28.113 2.737 31.8887 5.3907 32.5313C5.78931 32.6279 6.15948 32.8172 6.47107 33.0839C6.78265 33.3506 7.02684 33.6871 7.18375 34.0661C7.34066 34.445 7.40586 34.8557 7.37403 35.2646C7.34221 35.6735 7.21425 36.0691 7.0006 36.4192C5.5794 38.7516 8.2484 41.4206 10.5808 39.9994C10.9309 39.7857 11.3265 39.6578 11.7354 39.626C12.1443 39.5941 12.555 39.6593 12.9339 39.8162C13.3128 39.9732 13.6494 40.2173 13.9161 40.5289C14.1828 40.8405 14.3721 41.2107 14.4687 41.6093C15.113 44.263 18.8887 44.263 19.5313 41.6093C19.6282 41.2109 19.8177 40.841 20.0845 40.5296C20.3512 40.2182 20.6877 39.9742 21.0665 39.8173C21.4454 39.6605 21.8559 39.5952 22.2647 39.6268C22.6735 39.6585 23.069 39.7861 23.4192 39.9994C25.7516 41.4206 28.4206 38.7516 26.9994 36.4192C26.7861 36.069 26.6585 35.6735 26.6268 35.2647C26.5952 34.8559 26.6605 34.4454 26.8173 34.0665C26.9742 33.6877 27.2182 33.3512 27.5296 33.0845C27.841 32.8177 28.2109 32.6282 28.6093 32.5313C31.263 31.887 31.263 28.1113 28.6093 27.4687C28.2107 27.3721 27.8405 27.1828 27.5289 26.9161C27.2173 26.6494 26.9732 26.3128 26.8162 25.9339C26.6593 25.555 26.5941 25.1443 26.626 24.7354C26.6578 24.3265 26.7857 23.9309 26.9994 23.5808C28.4206 21.2484 25.7516 18.5794 23.4192 20.0006C23.0691 20.2143 22.6735 20.3422 22.2646 20.374C21.8557 20.4059 21.445 20.3407 21.0661 20.1838C20.6871 20.0268 20.3506 19.7826 20.0839 19.4711C19.8172 19.1595 19.6279 18.7893 19.5313 18.3907L19.533 18.389ZM17 35.1C18.3526 35.1 19.6498 34.5627 20.6062 33.6062C21.5627 32.6498 22.1 31.3526 22.1 30C22.1 28.6474 21.5627 27.3502 20.6062 26.3938C19.6498 25.4373 18.3526 24.9 17 24.9C15.6474 24.9 14.3502 25.4373 13.3938 26.3938C12.4373 27.3502 11.9 28.6474 11.9 30C11.9 31.3526 12.4373 32.6498 13.3938 33.6062C14.3502 34.5627 15.6474 35.1 17 35.1Z" fill="#D4B43C"/>
<defs>
<clipPath id="clip0_24_2805">
<rect width="34" height="34" fill="white" transform="translate(18 38) rotate(-30)"/>
</clipPath>
</defs>
</svg>
