<svg width="67" height="63" viewBox="0 0 67 63" fill="none" xmlns="http://www.w3.org/2000/svg">
<path d="M33.3333 34.6667L20 28L6.66666 34.6667M33.3333 34.6667L20 41.3333M33.3333 34.6667V51.3333L20 58M20 41.3333L6.66666 34.6667M20 41.3333V58M6.66666 34.6667V51.3333L20 58" stroke="#D4B43C" stroke-width="2" stroke-linecap="round" stroke-linejoin="round"/>
<path d="M60.3333 34.6667L47 28L33.6667 34.6667M60.3333 34.6667L47 41.3333M60.3333 34.6667V51.3333L47 58M47 41.3333L33.6667 34.6667M47 41.3333V58M33.6667 34.6667V51.3333L47 58" stroke="#D4B43C" stroke-width="2" stroke-linecap="round" stroke-linejoin="round"/>
<path d="M46.3333 11.6667L33 5L19.6667 11.6667M46.3333 11.6667L33 18.3333M46.3333 11.6667V28.3333L33 35M33 18.3333L19.6667 11.6667M33 18.3333V35M19.6667 11.6667V28.3333L33 35" stroke="#D4B43C" stroke-width="2" stroke-linecap="round" stroke-linejoin="round"/>
</svg>
