<svg width="348" height="147" viewBox="0 0 348 147" fill="none" xmlns="http://www.w3.org/2000/svg">
<g style="mix-blend-mode:multiply" clip-path="url(#clip0_35_2151)">
<path d="M26.1362 31.5368L26.3929 31.3938L26.3929 31.1L26.3929 18.4L26.3929 18.1062L26.1362 17.9632L14.7537 11.6232L14.5103 11.4876L14.2669 11.6233L2.87408 17.9733L2.6175 18.1163L2.6175 18.41L2.6175 31.1L2.6175 31.394L2.87437 31.5369L14.2672 37.8769L14.5105 38.0123L14.7537 37.8768L26.1362 31.5368ZM17.3844 42.2133L17.1279 42.3563L17.1279 42.65L17.1279 48.5L16.0564 48.5L16.0564 41.7936L28.5 34.8515L28.5 36.0163L17.3844 42.2133ZM16.0564 7.7064L16.0564 0.499999L17.1279 0.499999L17.1279 6.85L17.1279 7.1437L17.3844 7.28672L28.5 13.4837L28.5 14.6485L16.0564 7.7064ZM11.6362 42.2132L0.500001 36.0104L0.500001 34.8454L12.9643 41.7937L12.9643 48.5L11.8929 48.5L11.8929 42.65L11.8929 42.3562L11.6362 42.2132ZM12.9643 7.70629L0.500003 14.6546L0.500003 13.4896L11.6362 7.28681L11.8929 7.14383L11.8929 6.85L11.8929 0.499999L12.9643 0.499999L12.9643 7.70629ZM27.4643 31.9563L14.5103 39.1776L1.54607 31.9562L1.54607 17.5438L14.5103 10.3224L27.4643 17.5437L27.4643 31.9563Z" stroke="#D4B43C" stroke-opacity="0.6"/>
</g>
<g style="mix-blend-mode:multiply" clip-path="url(#clip1_35_2151)">
<path d="M26.1362 31.5368L26.3929 31.3938L26.3929 31.1L26.3929 18.4L26.3929 18.1062L26.1362 17.9632L14.7537 11.6232L14.5103 11.4876L14.2669 11.6233L2.87408 17.9733L2.6175 18.1163L2.6175 18.41L2.6175 31.1L2.6175 31.394L2.87437 31.5369L14.2672 37.8769L14.5105 38.0123L14.7537 37.8768L26.1362 31.5368ZM17.3844 42.2133L17.1279 42.3563L17.1279 42.65L17.1279 48.5L16.0564 48.5L16.0564 41.7936L28.5 34.8515L28.5 36.0163L17.3844 42.2133ZM16.0564 7.7064L16.0564 0.499999L17.1279 0.499999L17.1279 6.85L17.1279 7.1437L17.3844 7.28672L28.5 13.4837L28.5 14.6485L16.0564 7.7064ZM11.6362 42.2132L0.500001 36.0104L0.500001 34.8454L12.9643 41.7937L12.9643 48.5L11.8929 48.5L11.8929 42.65L11.8929 42.3562L11.6362 42.2132ZM12.9643 7.70629L0.500003 14.6546L0.500003 13.4896L11.6362 7.28681L11.8929 7.14383L11.8929 6.85L11.8929 0.499999L12.9643 0.499999L12.9643 7.70629ZM27.4643 31.9563L14.5103 39.1776L1.54607 31.9562L1.54607 17.5438L14.5103 10.3224L27.4643 17.5437L27.4643 31.9563Z" stroke="#D4B43C" stroke-opacity="0.6"/>
</g>
<g style="mix-blend-mode:multiply" clip-path="url(#clip2_35_2151)">
<path d="M55.1362 31.5368L55.3929 31.3938L55.3929 31.1L55.3929 18.4L55.3929 18.1062L55.1362 17.9632L43.7537 11.6232L43.5103 11.4876L43.2669 11.6233L31.8741 17.9733L31.6175 18.1163L31.6175 18.41L31.6175 31.1L31.6175 31.394L31.8744 31.5369L43.2672 37.8769L43.5105 38.0123L43.7537 37.8768L55.1362 31.5368ZM46.3844 42.2133L46.1279 42.3563L46.1279 42.65L46.1279 48.5L45.0564 48.5L45.0564 41.7936L57.5 34.8515L57.5 36.0163L46.3844 42.2133ZM45.0564 7.7064L45.0564 0.499999L46.1279 0.499999L46.1279 6.85L46.1279 7.1437L46.3844 7.28672L57.5 13.4837L57.5 14.6485L45.0564 7.7064ZM40.6362 42.2132L29.5 36.0104L29.5 34.8454L41.9643 41.7937L41.9643 48.5L40.8929 48.5L40.8929 42.65L40.8929 42.3562L40.6362 42.2132ZM41.9643 7.70629L29.5 14.6546L29.5 13.4896L40.6362 7.28681L40.8929 7.14383L40.8929 6.85L40.8929 0.499999L41.9643 0.499999L41.9643 7.70629ZM56.4643 31.9563L43.5103 39.1776L30.5461 31.9562L30.5461 17.5438L43.5103 10.3224L56.4643 17.5437L56.4643 31.9563Z" stroke="#D4B43C" stroke-opacity="0.6"/>
</g>
<g style="mix-blend-mode:multiply" clip-path="url(#clip3_35_2151)">
<path d="M55.1362 31.5368L55.3929 31.3938L55.3929 31.1L55.3929 18.4L55.3929 18.1062L55.1362 17.9632L43.7537 11.6232L43.5103 11.4876L43.2669 11.6233L31.8741 17.9733L31.6175 18.1163L31.6175 18.41L31.6175 31.1L31.6175 31.394L31.8744 31.5369L43.2672 37.8769L43.5105 38.0123L43.7537 37.8768L55.1362 31.5368ZM46.3844 42.2133L46.1279 42.3563L46.1279 42.65L46.1279 48.5L45.0564 48.5L45.0564 41.7936L57.5 34.8515L57.5 36.0163L46.3844 42.2133ZM45.0564 7.7064L45.0564 0.499999L46.1279 0.499999L46.1279 6.85L46.1279 7.1437L46.3844 7.28672L57.5 13.4837L57.5 14.6485L45.0564 7.7064ZM40.6362 42.2132L29.5 36.0104L29.5 34.8454L41.9643 41.7937L41.9643 48.5L40.8929 48.5L40.8929 42.65L40.8929 42.3562L40.6362 42.2132ZM41.9643 7.70629L29.5 14.6546L29.5 13.4896L40.6362 7.28681L40.8929 7.14383L40.8929 6.85L40.8929 0.499999L41.9643 0.499999L41.9643 7.70629ZM56.4643 31.9563L43.5103 39.1776L30.5461 31.9562L30.5461 17.5438L43.5103 10.3224L56.4643 17.5437L56.4643 31.9563Z" stroke="#D4B43C" stroke-opacity="0.6"/>
</g>
<g style="mix-blend-mode:multiply" clip-path="url(#clip4_35_2151)">
<path d="M84.1362 31.5368L84.3929 31.3938L84.3929 31.1L84.3929 18.4L84.3929 18.1062L84.1362 17.9632L72.7537 11.6232L72.5103 11.4876L72.2669 11.6233L60.8741 17.9733L60.6175 18.1163L60.6175 18.41L60.6175 31.1L60.6175 31.394L60.8744 31.5369L72.2672 37.8769L72.5105 38.0123L72.7537 37.8768L84.1362 31.5368ZM75.3844 42.2133L75.1279 42.3563L75.1279 42.65L75.1279 48.5L74.0564 48.5L74.0564 41.7936L86.5 34.8515L86.5 36.0163L75.3844 42.2133ZM74.0564 7.7064L74.0564 0.499999L75.1279 0.499999L75.1279 6.85L75.1279 7.1437L75.3844 7.28672L86.5 13.4837L86.5 14.6485L74.0564 7.7064ZM69.6362 42.2132L58.5 36.0104L58.5 34.8454L70.9643 41.7937L70.9643 48.5L69.8929 48.5L69.8929 42.65L69.8929 42.3562L69.6362 42.2132ZM70.9643 7.70629L58.5 14.6546L58.5 13.4896L69.6362 7.28681L69.8929 7.14383L69.8929 6.85L69.8929 0.499999L70.9643 0.499999L70.9643 7.70629ZM85.4643 31.9563L72.5103 39.1776L59.5461 31.9562L59.5461 17.5438L72.5103 10.3224L85.4643 17.5437L85.4643 31.9563Z" stroke="#D4B43C" stroke-opacity="0.6"/>
</g>
<g style="mix-blend-mode:multiply" clip-path="url(#clip5_35_2151)">
<path d="M84.1362 31.5368L84.3929 31.3938L84.3929 31.1L84.3929 18.4L84.3929 18.1062L84.1362 17.9632L72.7537 11.6232L72.5103 11.4876L72.2669 11.6233L60.8741 17.9733L60.6175 18.1163L60.6175 18.41L60.6175 31.1L60.6175 31.394L60.8744 31.5369L72.2672 37.8769L72.5105 38.0123L72.7537 37.8768L84.1362 31.5368ZM75.3844 42.2133L75.1279 42.3563L75.1279 42.65L75.1279 48.5L74.0564 48.5L74.0564 41.7936L86.5 34.8515L86.5 36.0163L75.3844 42.2133ZM74.0564 7.7064L74.0564 0.499999L75.1279 0.499999L75.1279 6.85L75.1279 7.1437L75.3844 7.28672L86.5 13.4837L86.5 14.6485L74.0564 7.7064ZM69.6362 42.2132L58.5 36.0104L58.5 34.8454L70.9643 41.7937L70.9643 48.5L69.8929 48.5L69.8929 42.65L69.8929 42.3562L69.6362 42.2132ZM70.9643 7.70629L58.5 14.6546L58.5 13.4896L69.6362 7.28681L69.8929 7.14383L69.8929 6.85L69.8929 0.499999L70.9643 0.499999L70.9643 7.70629ZM85.4643 31.9563L72.5103 39.1776L59.5461 31.9562L59.5461 17.5438L72.5103 10.3224L85.4643 17.5437L85.4643 31.9563Z" stroke="#D4B43C" stroke-opacity="0.6"/>
</g>
<g style="mix-blend-mode:multiply" clip-path="url(#clip6_35_2151)">
<path d="M113.136 31.5368L113.393 31.3938L113.393 31.1L113.393 18.4L113.393 18.1062L113.136 17.9632L101.754 11.6232L101.51 11.4876L101.267 11.6233L89.8741 17.9733L89.6175 18.1163L89.6175 18.41L89.6175 31.1L89.6175 31.394L89.8744 31.5369L101.267 37.8769L101.51 38.0123L101.754 37.8768L113.136 31.5368ZM104.384 42.2133L104.128 42.3563L104.128 42.65L104.128 48.5L103.056 48.5L103.056 41.7936L115.5 34.8515L115.5 36.0163L104.384 42.2133ZM103.056 7.7064L103.056 0.499999L104.128 0.499999L104.128 6.85L104.128 7.1437L104.384 7.28672L115.5 13.4837L115.5 14.6485L103.056 7.7064ZM98.6362 42.2132L87.5 36.0104L87.5 34.8454L99.9643 41.7937L99.9643 48.5L98.8929 48.5L98.8929 42.65L98.8929 42.3562L98.6362 42.2132ZM99.9643 7.70629L87.5 14.6546L87.5 13.4896L98.6362 7.28681L98.8929 7.14383L98.8929 6.85L98.8929 0.499999L99.9643 0.499999L99.9643 7.70629ZM114.464 31.9563L101.51 39.1776L88.5461 31.9562L88.5461 17.5438L101.51 10.3224L114.464 17.5437L114.464 31.9563Z" stroke="#D4B43C" stroke-opacity="0.6"/>
</g>
<g style="mix-blend-mode:multiply" clip-path="url(#clip7_35_2151)">
<path d="M113.136 31.5368L113.393 31.3938L113.393 31.1L113.393 18.4L113.393 18.1062L113.136 17.9632L101.754 11.6232L101.51 11.4876L101.267 11.6233L89.8741 17.9733L89.6175 18.1163L89.6175 18.41L89.6175 31.1L89.6175 31.394L89.8744 31.5369L101.267 37.8769L101.51 38.0123L101.754 37.8768L113.136 31.5368ZM104.384 42.2133L104.128 42.3563L104.128 42.65L104.128 48.5L103.056 48.5L103.056 41.7936L115.5 34.8515L115.5 36.0163L104.384 42.2133ZM103.056 7.7064L103.056 0.499999L104.128 0.499999L104.128 6.85L104.128 7.1437L104.384 7.28672L115.5 13.4837L115.5 14.6485L103.056 7.7064ZM98.6362 42.2132L87.5 36.0104L87.5 34.8454L99.9643 41.7937L99.9643 48.5L98.8929 48.5L98.8929 42.65L98.8929 42.3562L98.6362 42.2132ZM99.9643 7.70629L87.5 14.6546L87.5 13.4896L98.6362 7.28681L98.8929 7.14383L98.8929 6.85L98.8929 0.499999L99.9643 0.499999L99.9643 7.70629ZM114.464 31.9563L101.51 39.1776L88.5461 31.9562L88.5461 17.5438L101.51 10.3224L114.464 17.5437L114.464 31.9563Z" stroke="#D4B43C" stroke-opacity="0.6"/>
</g>
<g style="mix-blend-mode:multiply" clip-path="url(#clip8_35_2151)">
<path d="M142.136 31.5368L142.393 31.3938L142.393 31.1L142.393 18.4L142.393 18.1062L142.136 17.9632L130.754 11.6232L130.51 11.4876L130.267 11.6233L118.874 17.9733L118.618 18.1163L118.618 18.41L118.618 31.1L118.618 31.394L118.874 31.5369L130.267 37.8769L130.51 38.0123L130.754 37.8768L142.136 31.5368ZM133.384 42.2133L133.128 42.3563L133.128 42.65L133.128 48.5L132.056 48.5L132.056 41.7936L144.5 34.8515L144.5 36.0163L133.384 42.2133ZM132.056 7.7064L132.056 0.499999L133.128 0.499999L133.128 6.85L133.128 7.1437L133.384 7.28672L144.5 13.4837L144.5 14.6485L132.056 7.7064ZM127.636 42.2132L116.5 36.0104L116.5 34.8454L128.964 41.7937L128.964 48.5L127.893 48.5L127.893 42.65L127.893 42.3562L127.636 42.2132ZM128.964 7.70629L116.5 14.6546L116.5 13.4896L127.636 7.28681L127.893 7.14383L127.893 6.85L127.893 0.499999L128.964 0.499999L128.964 7.70629ZM143.464 31.9563L130.51 39.1776L117.546 31.9562L117.546 17.5438L130.51 10.3224L143.464 17.5437L143.464 31.9563Z" stroke="#D4B43C" stroke-opacity="0.6"/>
</g>
<g style="mix-blend-mode:multiply" clip-path="url(#clip9_35_2151)">
<path d="M142.136 31.5368L142.393 31.3938L142.393 31.1L142.393 18.4L142.393 18.1062L142.136 17.9632L130.754 11.6232L130.51 11.4876L130.267 11.6233L118.874 17.9733L118.618 18.1163L118.618 18.41L118.618 31.1L118.618 31.394L118.874 31.5369L130.267 37.8769L130.51 38.0123L130.754 37.8768L142.136 31.5368ZM133.384 42.2133L133.128 42.3563L133.128 42.65L133.128 48.5L132.056 48.5L132.056 41.7936L144.5 34.8515L144.5 36.0163L133.384 42.2133ZM132.056 7.7064L132.056 0.499999L133.128 0.499999L133.128 6.85L133.128 7.1437L133.384 7.28672L144.5 13.4837L144.5 14.6485L132.056 7.7064ZM127.636 42.2132L116.5 36.0104L116.5 34.8454L128.964 41.7937L128.964 48.5L127.893 48.5L127.893 42.65L127.893 42.3562L127.636 42.2132ZM128.964 7.70629L116.5 14.6546L116.5 13.4896L127.636 7.28681L127.893 7.14383L127.893 6.85L127.893 0.499999L128.964 0.499999L128.964 7.70629ZM143.464 31.9563L130.51 39.1776L117.546 31.9562L117.546 17.5438L130.51 10.3224L143.464 17.5437L143.464 31.9563Z" stroke="#D4B43C" stroke-opacity="0.6"/>
</g>
<g style="mix-blend-mode:multiply" clip-path="url(#clip10_35_2151)">
<path d="M171.136 31.5368L171.393 31.3938L171.393 31.1L171.393 18.4L171.393 18.1062L171.136 17.9632L159.754 11.6232L159.51 11.4876L159.267 11.6233L147.874 17.9733L147.618 18.1163L147.618 18.41L147.618 31.1L147.618 31.394L147.874 31.5369L159.267 37.8769L159.51 38.0123L159.754 37.8768L171.136 31.5368ZM162.384 42.2133L162.128 42.3563L162.128 42.65L162.128 48.5L161.056 48.5L161.056 41.7936L173.5 34.8515L173.5 36.0163L162.384 42.2133ZM161.056 7.7064L161.056 0.499999L162.128 0.499999L162.128 6.85L162.128 7.1437L162.384 7.28672L173.5 13.4837L173.5 14.6485L161.056 7.7064ZM156.636 42.2132L145.5 36.0104L145.5 34.8454L157.964 41.7937L157.964 48.5L156.893 48.5L156.893 42.65L156.893 42.3562L156.636 42.2132ZM157.964 7.70629L145.5 14.6546L145.5 13.4896L156.636 7.28681L156.893 7.14383L156.893 6.85L156.893 0.499999L157.964 0.499999L157.964 7.70629ZM172.464 31.9563L159.51 39.1776L146.546 31.9562L146.546 17.5438L159.51 10.3224L172.464 17.5437L172.464 31.9563Z" stroke="#D4B43C" stroke-opacity="0.6"/>
</g>
<g style="mix-blend-mode:multiply" clip-path="url(#clip11_35_2151)">
<path d="M171.136 31.5368L171.393 31.3938L171.393 31.1L171.393 18.4L171.393 18.1062L171.136 17.9632L159.754 11.6232L159.51 11.4876L159.267 11.6233L147.874 17.9733L147.618 18.1163L147.618 18.41L147.618 31.1L147.618 31.394L147.874 31.5369L159.267 37.8769L159.51 38.0123L159.754 37.8768L171.136 31.5368ZM162.384 42.2133L162.128 42.3563L162.128 42.65L162.128 48.5L161.056 48.5L161.056 41.7936L173.5 34.8515L173.5 36.0163L162.384 42.2133ZM161.056 7.7064L161.056 0.499999L162.128 0.499999L162.128 6.85L162.128 7.1437L162.384 7.28672L173.5 13.4837L173.5 14.6485L161.056 7.7064ZM156.636 42.2132L145.5 36.0104L145.5 34.8454L157.964 41.7937L157.964 48.5L156.893 48.5L156.893 42.65L156.893 42.3562L156.636 42.2132ZM157.964 7.70629L145.5 14.6546L145.5 13.4896L156.636 7.28681L156.893 7.14383L156.893 6.85L156.893 0.499999L157.964 0.499999L157.964 7.70629ZM172.464 31.9563L159.51 39.1776L146.546 31.9562L146.546 17.5438L159.51 10.3224L172.464 17.5437L172.464 31.9563Z" stroke="#D4B43C" stroke-opacity="0.6"/>
</g>
<g style="mix-blend-mode:multiply" clip-path="url(#clip12_35_2151)">
<path d="M200.136 31.5368L200.393 31.3938L200.393 31.1L200.393 18.4L200.393 18.1062L200.136 17.9632L188.754 11.6232L188.51 11.4876L188.267 11.6233L176.874 17.9733L176.618 18.1163L176.618 18.41L176.618 31.1L176.618 31.394L176.874 31.5369L188.267 37.8769L188.51 38.0123L188.754 37.8768L200.136 31.5368ZM191.384 42.2133L191.128 42.3563L191.128 42.65L191.128 48.5L190.056 48.5L190.056 41.7936L202.5 34.8515L202.5 36.0163L191.384 42.2133ZM190.056 7.7064L190.056 0.499999L191.128 0.499999L191.128 6.85L191.128 7.1437L191.384 7.28672L202.5 13.4837L202.5 14.6485L190.056 7.7064ZM185.636 42.2132L174.5 36.0104L174.5 34.8454L186.964 41.7937L186.964 48.5L185.893 48.5L185.893 42.65L185.893 42.3562L185.636 42.2132ZM186.964 7.70629L174.5 14.6546L174.5 13.4896L185.636 7.28681L185.893 7.14383L185.893 6.85L185.893 0.499999L186.964 0.499999L186.964 7.70629ZM201.464 31.9563L188.51 39.1776L175.546 31.9562L175.546 17.5438L188.51 10.3224L201.464 17.5437L201.464 31.9563Z" stroke="#D4B43C" stroke-opacity="0.6"/>
</g>
<g style="mix-blend-mode:multiply" clip-path="url(#clip13_35_2151)">
<path d="M200.136 31.5368L200.393 31.3938L200.393 31.1L200.393 18.4L200.393 18.1062L200.136 17.9632L188.754 11.6232L188.51 11.4876L188.267 11.6233L176.874 17.9733L176.618 18.1163L176.618 18.41L176.618 31.1L176.618 31.394L176.874 31.5369L188.267 37.8769L188.51 38.0123L188.754 37.8768L200.136 31.5368ZM191.384 42.2133L191.128 42.3563L191.128 42.65L191.128 48.5L190.056 48.5L190.056 41.7936L202.5 34.8515L202.5 36.0163L191.384 42.2133ZM190.056 7.7064L190.056 0.499999L191.128 0.499999L191.128 6.85L191.128 7.1437L191.384 7.28672L202.5 13.4837L202.5 14.6485L190.056 7.7064ZM185.636 42.2132L174.5 36.0104L174.5 34.8454L186.964 41.7937L186.964 48.5L185.893 48.5L185.893 42.65L185.893 42.3562L185.636 42.2132ZM186.964 7.70629L174.5 14.6546L174.5 13.4896L185.636 7.28681L185.893 7.14383L185.893 6.85L185.893 0.499999L186.964 0.499999L186.964 7.70629ZM201.464 31.9563L188.51 39.1776L175.546 31.9562L175.546 17.5438L188.51 10.3224L201.464 17.5437L201.464 31.9563Z" stroke="#D4B43C" stroke-opacity="0.6"/>
</g>
<g style="mix-blend-mode:multiply" clip-path="url(#clip14_35_2151)">
<path d="M229.136 31.5368L229.393 31.3938L229.393 31.1L229.393 18.4L229.393 18.1062L229.136 17.9632L217.754 11.6232L217.51 11.4876L217.267 11.6233L205.874 17.9733L205.618 18.1163L205.618 18.41L205.618 31.1L205.618 31.394L205.874 31.5369L217.267 37.8769L217.51 38.0123L217.754 37.8768L229.136 31.5368ZM220.384 42.2133L220.128 42.3563L220.128 42.65L220.128 48.5L219.056 48.5L219.056 41.7936L231.5 34.8515L231.5 36.0163L220.384 42.2133ZM219.056 7.7064L219.056 0.499999L220.128 0.499999L220.128 6.85L220.128 7.1437L220.384 7.28672L231.5 13.4837L231.5 14.6485L219.056 7.7064ZM214.636 42.2132L203.5 36.0104L203.5 34.8454L215.964 41.7937L215.964 48.5L214.893 48.5L214.893 42.65L214.893 42.3562L214.636 42.2132ZM215.964 7.70629L203.5 14.6546L203.5 13.4896L214.636 7.28681L214.893 7.14383L214.893 6.85L214.893 0.499999L215.964 0.499999L215.964 7.70629ZM230.464 31.9563L217.51 39.1776L204.546 31.9562L204.546 17.5438L217.51 10.3224L230.464 17.5437L230.464 31.9563Z" stroke="#D4B43C" stroke-opacity="0.6"/>
</g>
<g style="mix-blend-mode:multiply" clip-path="url(#clip15_35_2151)">
<path d="M229.136 31.5368L229.393 31.3938L229.393 31.1L229.393 18.4L229.393 18.1062L229.136 17.9632L217.754 11.6232L217.51 11.4876L217.267 11.6233L205.874 17.9733L205.618 18.1163L205.618 18.41L205.618 31.1L205.618 31.394L205.874 31.5369L217.267 37.8769L217.51 38.0123L217.754 37.8768L229.136 31.5368ZM220.384 42.2133L220.128 42.3563L220.128 42.65L220.128 48.5L219.056 48.5L219.056 41.7936L231.5 34.8515L231.5 36.0163L220.384 42.2133ZM219.056 7.7064L219.056 0.499999L220.128 0.499999L220.128 6.85L220.128 7.1437L220.384 7.28672L231.5 13.4837L231.5 14.6485L219.056 7.7064ZM214.636 42.2132L203.5 36.0104L203.5 34.8454L215.964 41.7937L215.964 48.5L214.893 48.5L214.893 42.65L214.893 42.3562L214.636 42.2132ZM215.964 7.70629L203.5 14.6546L203.5 13.4896L214.636 7.28681L214.893 7.14383L214.893 6.85L214.893 0.499999L215.964 0.499999L215.964 7.70629ZM230.464 31.9563L217.51 39.1776L204.546 31.9562L204.546 17.5438L217.51 10.3224L230.464 17.5437L230.464 31.9563Z" stroke="#D4B43C" stroke-opacity="0.6"/>
</g>
<g style="mix-blend-mode:multiply" clip-path="url(#clip16_35_2151)">
<path d="M258.136 31.5368L258.393 31.3938L258.393 31.1L258.393 18.4L258.393 18.1062L258.136 17.9632L246.754 11.6232L246.51 11.4876L246.267 11.6233L234.874 17.9733L234.618 18.1163L234.618 18.41L234.618 31.1L234.618 31.394L234.874 31.5369L246.267 37.8769L246.51 38.0123L246.754 37.8768L258.136 31.5368ZM249.384 42.2133L249.128 42.3563L249.128 42.65L249.128 48.5L248.056 48.5L248.056 41.7936L260.5 34.8515L260.5 36.0163L249.384 42.2133ZM248.056 7.7064L248.056 0.499999L249.128 0.499999L249.128 6.85L249.128 7.1437L249.384 7.28672L260.5 13.4837L260.5 14.6485L248.056 7.7064ZM243.636 42.2132L232.5 36.0104L232.5 34.8454L244.964 41.7937L244.964 48.5L243.893 48.5L243.893 42.65L243.893 42.3562L243.636 42.2132ZM244.964 7.70629L232.5 14.6546L232.5 13.4896L243.636 7.28681L243.893 7.14383L243.893 6.85L243.893 0.499999L244.964 0.499999L244.964 7.70629ZM259.464 31.9563L246.51 39.1776L233.546 31.9562L233.546 17.5438L246.51 10.3224L259.464 17.5437L259.464 31.9563Z" stroke="#D4B43C" stroke-opacity="0.6"/>
</g>
<g style="mix-blend-mode:multiply" clip-path="url(#clip17_35_2151)">
<path d="M258.136 31.5368L258.393 31.3938L258.393 31.1L258.393 18.4L258.393 18.1062L258.136 17.9632L246.754 11.6232L246.51 11.4876L246.267 11.6233L234.874 17.9733L234.618 18.1163L234.618 18.41L234.618 31.1L234.618 31.394L234.874 31.5369L246.267 37.8769L246.51 38.0123L246.754 37.8768L258.136 31.5368ZM249.384 42.2133L249.128 42.3563L249.128 42.65L249.128 48.5L248.056 48.5L248.056 41.7936L260.5 34.8515L260.5 36.0163L249.384 42.2133ZM248.056 7.7064L248.056 0.499999L249.128 0.499999L249.128 6.85L249.128 7.1437L249.384 7.28672L260.5 13.4837L260.5 14.6485L248.056 7.7064ZM243.636 42.2132L232.5 36.0104L232.5 34.8454L244.964 41.7937L244.964 48.5L243.893 48.5L243.893 42.65L243.893 42.3562L243.636 42.2132ZM244.964 7.70629L232.5 14.6546L232.5 13.4896L243.636 7.28681L243.893 7.14383L243.893 6.85L243.893 0.499999L244.964 0.499999L244.964 7.70629ZM259.464 31.9563L246.51 39.1776L233.546 31.9562L233.546 17.5438L246.51 10.3224L259.464 17.5437L259.464 31.9563Z" stroke="#D4B43C" stroke-opacity="0.6"/>
</g>
<g style="mix-blend-mode:multiply" clip-path="url(#clip18_35_2151)">
<path d="M287.136 31.5368L287.393 31.3938L287.393 31.1L287.393 18.4L287.393 18.1062L287.136 17.9632L275.754 11.6232L275.51 11.4876L275.267 11.6233L263.874 17.9733L263.618 18.1163L263.618 18.41L263.618 31.1L263.618 31.394L263.874 31.5369L275.267 37.8769L275.51 38.0123L275.754 37.8768L287.136 31.5368ZM278.384 42.2133L278.128 42.3563L278.128 42.65L278.128 48.5L277.056 48.5L277.056 41.7936L289.5 34.8515L289.5 36.0163L278.384 42.2133ZM277.056 7.7064L277.056 0.499999L278.128 0.499999L278.128 6.85L278.128 7.1437L278.384 7.28672L289.5 13.4837L289.5 14.6485L277.056 7.7064ZM272.636 42.2132L261.5 36.0104L261.5 34.8454L273.964 41.7937L273.964 48.5L272.893 48.5L272.893 42.65L272.893 42.3562L272.636 42.2132ZM273.964 7.70629L261.5 14.6546L261.5 13.4896L272.636 7.28681L272.893 7.14383L272.893 6.85L272.893 0.499999L273.964 0.499999L273.964 7.70629ZM288.464 31.9563L275.51 39.1776L262.546 31.9562L262.546 17.5438L275.51 10.3224L288.464 17.5437L288.464 31.9563Z" stroke="#D4B43C" stroke-opacity="0.6"/>
</g>
<g style="mix-blend-mode:multiply" clip-path="url(#clip19_35_2151)">
<path d="M287.136 31.5368L287.393 31.3938L287.393 31.1L287.393 18.4L287.393 18.1062L287.136 17.9632L275.754 11.6232L275.51 11.4876L275.267 11.6233L263.874 17.9733L263.618 18.1163L263.618 18.41L263.618 31.1L263.618 31.394L263.874 31.5369L275.267 37.8769L275.51 38.0123L275.754 37.8768L287.136 31.5368ZM278.384 42.2133L278.128 42.3563L278.128 42.65L278.128 48.5L277.056 48.5L277.056 41.7936L289.5 34.8515L289.5 36.0163L278.384 42.2133ZM277.056 7.7064L277.056 0.499999L278.128 0.499999L278.128 6.85L278.128 7.1437L278.384 7.28672L289.5 13.4837L289.5 14.6485L277.056 7.7064ZM272.636 42.2132L261.5 36.0104L261.5 34.8454L273.964 41.7937L273.964 48.5L272.893 48.5L272.893 42.65L272.893 42.3562L272.636 42.2132ZM273.964 7.70629L261.5 14.6546L261.5 13.4896L272.636 7.28681L272.893 7.14383L272.893 6.85L272.893 0.499999L273.964 0.499999L273.964 7.70629ZM288.464 31.9563L275.51 39.1776L262.546 31.9562L262.546 17.5438L275.51 10.3224L288.464 17.5437L288.464 31.9563Z" stroke="#D4B43C" stroke-opacity="0.6"/>
</g>
<g style="mix-blend-mode:multiply" clip-path="url(#clip20_35_2151)">
<path d="M316.136 31.5368L316.393 31.3938L316.393 31.1L316.393 18.4L316.393 18.1062L316.136 17.9632L304.754 11.6232L304.51 11.4876L304.267 11.6233L292.874 17.9733L292.618 18.1163L292.618 18.41L292.618 31.1L292.618 31.394L292.874 31.5369L304.267 37.8769L304.51 38.0123L304.754 37.8768L316.136 31.5368ZM307.384 42.2133L307.128 42.3563L307.128 42.65L307.128 48.5L306.056 48.5L306.056 41.7936L318.5 34.8515L318.5 36.0163L307.384 42.2133ZM306.056 7.7064L306.056 0.499999L307.128 0.499999L307.128 6.85L307.128 7.1437L307.384 7.28672L318.5 13.4837L318.5 14.6485L306.056 7.7064ZM301.636 42.2132L290.5 36.0104L290.5 34.8454L302.964 41.7937L302.964 48.5L301.893 48.5L301.893 42.65L301.893 42.3562L301.636 42.2132ZM302.964 7.70629L290.5 14.6546L290.5 13.4896L301.636 7.28681L301.893 7.14383L301.893 6.85L301.893 0.499999L302.964 0.499999L302.964 7.70629ZM317.464 31.9563L304.51 39.1776L291.546 31.9562L291.546 17.5438L304.51 10.3224L317.464 17.5437L317.464 31.9563Z" stroke="#D4B43C" stroke-opacity="0.6"/>
</g>
<g style="mix-blend-mode:multiply" clip-path="url(#clip21_35_2151)">
<path d="M316.136 31.5368L316.393 31.3938L316.393 31.1L316.393 18.4L316.393 18.1062L316.136 17.9632L304.754 11.6232L304.51 11.4876L304.267 11.6233L292.874 17.9733L292.618 18.1163L292.618 18.41L292.618 31.1L292.618 31.394L292.874 31.5369L304.267 37.8769L304.51 38.0123L304.754 37.8768L316.136 31.5368ZM307.384 42.2133L307.128 42.3563L307.128 42.65L307.128 48.5L306.056 48.5L306.056 41.7936L318.5 34.8515L318.5 36.0163L307.384 42.2133ZM306.056 7.7064L306.056 0.499999L307.128 0.499999L307.128 6.85L307.128 7.1437L307.384 7.28672L318.5 13.4837L318.5 14.6485L306.056 7.7064ZM301.636 42.2132L290.5 36.0104L290.5 34.8454L302.964 41.7937L302.964 48.5L301.893 48.5L301.893 42.65L301.893 42.3562L301.636 42.2132ZM302.964 7.70629L290.5 14.6546L290.5 13.4896L301.636 7.28681L301.893 7.14383L301.893 6.85L301.893 0.499999L302.964 0.499999L302.964 7.70629ZM317.464 31.9563L304.51 39.1776L291.546 31.9562L291.546 17.5438L304.51 10.3224L317.464 17.5437L317.464 31.9563Z" stroke="#D4B43C" stroke-opacity="0.6"/>
</g>
<g style="mix-blend-mode:multiply" clip-path="url(#clip22_35_2151)">
<path d="M345.136 31.5368L345.393 31.3938L345.393 31.1L345.393 18.4L345.393 18.1062L345.136 17.9632L333.754 11.6232L333.51 11.4876L333.267 11.6233L321.874 17.9733L321.618 18.1163L321.618 18.41L321.618 31.1L321.618 31.394L321.874 31.5369L333.267 37.8769L333.51 38.0123L333.754 37.8768L345.136 31.5368ZM336.384 42.2133L336.128 42.3563L336.128 42.65L336.128 48.5L335.056 48.5L335.056 41.7936L347.5 34.8515L347.5 36.0163L336.384 42.2133ZM335.056 7.7064L335.056 0.499999L336.128 0.499999L336.128 6.85L336.128 7.1437L336.384 7.28672L347.5 13.4837L347.5 14.6485L335.056 7.7064ZM330.636 42.2132L319.5 36.0104L319.5 34.8454L331.964 41.7937L331.964 48.5L330.893 48.5L330.893 42.65L330.893 42.3562L330.636 42.2132ZM331.964 7.70629L319.5 14.6546L319.5 13.4896L330.636 7.28681L330.893 7.14383L330.893 6.85L330.893 0.499999L331.964 0.499999L331.964 7.70629ZM346.464 31.9563L333.51 39.1776L320.546 31.9562L320.546 17.5438L333.51 10.3224L346.464 17.5437L346.464 31.9563Z" stroke="#D4B43C" stroke-opacity="0.6"/>
</g>
<g style="mix-blend-mode:multiply" clip-path="url(#clip23_35_2151)">
<path d="M345.136 31.5368L345.393 31.3938L345.393 31.1L345.393 18.4L345.393 18.1062L345.136 17.9632L333.754 11.6232L333.51 11.4876L333.267 11.6233L321.874 17.9733L321.618 18.1163L321.618 18.41L321.618 31.1L321.618 31.394L321.874 31.5369L333.267 37.8769L333.51 38.0123L333.754 37.8768L345.136 31.5368ZM336.384 42.2133L336.128 42.3563L336.128 42.65L336.128 48.5L335.056 48.5L335.056 41.7936L347.5 34.8515L347.5 36.0163L336.384 42.2133ZM335.056 7.7064L335.056 0.499999L336.128 0.499999L336.128 6.85L336.128 7.1437L336.384 7.28672L347.5 13.4837L347.5 14.6485L335.056 7.7064ZM330.636 42.2132L319.5 36.0104L319.5 34.8454L331.964 41.7937L331.964 48.5L330.893 48.5L330.893 42.65L330.893 42.3562L330.636 42.2132ZM331.964 7.70629L319.5 14.6546L319.5 13.4896L330.636 7.28681L330.893 7.14383L330.893 6.85L330.893 0.499999L331.964 0.499999L331.964 7.70629ZM346.464 31.9563L333.51 39.1776L320.546 31.9562L320.546 17.5438L333.51 10.3224L346.464 17.5437L346.464 31.9563Z" stroke="#D4B43C" stroke-opacity="0.6"/>
</g>
<g style="mix-blend-mode:multiply" clip-path="url(#clip24_35_2151)">
<path d="M26.1362 80.5368L26.3929 80.3938L26.3929 80.1L26.3929 67.4L26.3929 67.1062L26.1362 66.9632L14.7537 60.6232L14.5103 60.4876L14.2669 60.6233L2.87408 66.9733L2.6175 67.1163L2.6175 67.41L2.6175 80.1L2.6175 80.394L2.87437 80.5369L14.2672 86.8769L14.5105 87.0123L14.7537 86.8768L26.1362 80.5368ZM17.3844 91.2133L17.1279 91.3563L17.1279 91.65L17.1279 97.5L16.0564 97.5L16.0564 90.7936L28.5 83.8515L28.5 85.0163L17.3844 91.2133ZM16.0564 56.7064L16.0564 49.5L17.1279 49.5L17.1279 55.85L17.1279 56.1437L17.3844 56.2867L28.5 62.4837L28.5 63.6485L16.0564 56.7064ZM11.6362 91.2132L0.500001 85.0104L0.500001 83.8454L12.9643 90.7937L12.9643 97.5L11.8929 97.5L11.8929 91.65L11.8929 91.3562L11.6362 91.2132ZM12.9643 56.7063L0.500003 63.6546L0.500003 62.4896L11.6362 56.2868L11.8929 56.1438L11.8929 55.85L11.8929 49.5L12.9643 49.5L12.9643 56.7063ZM27.4643 80.9563L14.5103 88.1776L1.54607 80.9562L1.54607 66.5438L14.5103 59.3224L27.4643 66.5437L27.4643 80.9563Z" stroke="#D4B43C" stroke-opacity="0.6"/>
</g>
<g style="mix-blend-mode:multiply" clip-path="url(#clip25_35_2151)">
<path d="M26.1362 80.5368L26.3929 80.3938L26.3929 80.1L26.3929 67.4L26.3929 67.1062L26.1362 66.9632L14.7537 60.6232L14.5103 60.4876L14.2669 60.6233L2.87408 66.9733L2.6175 67.1163L2.6175 67.41L2.6175 80.1L2.6175 80.394L2.87437 80.5369L14.2672 86.8769L14.5105 87.0123L14.7537 86.8768L26.1362 80.5368ZM17.3844 91.2133L17.1279 91.3563L17.1279 91.65L17.1279 97.5L16.0564 97.5L16.0564 90.7936L28.5 83.8515L28.5 85.0163L17.3844 91.2133ZM16.0564 56.7064L16.0564 49.5L17.1279 49.5L17.1279 55.85L17.1279 56.1437L17.3844 56.2867L28.5 62.4837L28.5 63.6485L16.0564 56.7064ZM11.6362 91.2132L0.500001 85.0104L0.500001 83.8454L12.9643 90.7937L12.9643 97.5L11.8929 97.5L11.8929 91.65L11.8929 91.3562L11.6362 91.2132ZM12.9643 56.7063L0.500003 63.6546L0.500003 62.4896L11.6362 56.2868L11.8929 56.1438L11.8929 55.85L11.8929 49.5L12.9643 49.5L12.9643 56.7063ZM27.4643 80.9563L14.5103 88.1776L1.54607 80.9562L1.54607 66.5438L14.5103 59.3224L27.4643 66.5437L27.4643 80.9563Z" stroke="#D4B43C" stroke-opacity="0.6"/>
</g>
<g style="mix-blend-mode:multiply" clip-path="url(#clip26_35_2151)">
<path d="M55.1362 80.5368L55.3929 80.3938L55.3929 80.1L55.3929 67.4L55.3929 67.1062L55.1362 66.9632L43.7537 60.6232L43.5103 60.4876L43.2669 60.6233L31.8741 66.9733L31.6175 67.1163L31.6175 67.41L31.6175 80.1L31.6175 80.394L31.8744 80.5369L43.2672 86.8769L43.5105 87.0123L43.7537 86.8768L55.1362 80.5368ZM46.3844 91.2133L46.1279 91.3563L46.1279 91.65L46.1279 97.5L45.0564 97.5L45.0564 90.7936L57.5 83.8515L57.5 85.0163L46.3844 91.2133ZM45.0564 56.7064L45.0564 49.5L46.1279 49.5L46.1279 55.85L46.1279 56.1437L46.3844 56.2867L57.5 62.4837L57.5 63.6485L45.0564 56.7064ZM40.6362 91.2132L29.5 85.0104L29.5 83.8454L41.9643 90.7937L41.9643 97.5L40.8929 97.5L40.8929 91.65L40.8929 91.3562L40.6362 91.2132ZM41.9643 56.7063L29.5 63.6546L29.5 62.4896L40.6362 56.2868L40.8929 56.1438L40.8929 55.85L40.8929 49.5L41.9643 49.5L41.9643 56.7063ZM56.4643 80.9563L43.5103 88.1776L30.5461 80.9562L30.5461 66.5438L43.5103 59.3224L56.4643 66.5437L56.4643 80.9563Z" stroke="#D4B43C" stroke-opacity="0.6"/>
</g>
<g style="mix-blend-mode:multiply" clip-path="url(#clip27_35_2151)">
<path d="M55.1362 80.5368L55.3929 80.3938L55.3929 80.1L55.3929 67.4L55.3929 67.1062L55.1362 66.9632L43.7537 60.6232L43.5103 60.4876L43.2669 60.6233L31.8741 66.9733L31.6175 67.1163L31.6175 67.41L31.6175 80.1L31.6175 80.394L31.8744 80.5369L43.2672 86.8769L43.5105 87.0123L43.7537 86.8768L55.1362 80.5368ZM46.3844 91.2133L46.1279 91.3563L46.1279 91.65L46.1279 97.5L45.0564 97.5L45.0564 90.7936L57.5 83.8515L57.5 85.0163L46.3844 91.2133ZM45.0564 56.7064L45.0564 49.5L46.1279 49.5L46.1279 55.85L46.1279 56.1437L46.3844 56.2867L57.5 62.4837L57.5 63.6485L45.0564 56.7064ZM40.6362 91.2132L29.5 85.0104L29.5 83.8454L41.9643 90.7937L41.9643 97.5L40.8929 97.5L40.8929 91.65L40.8929 91.3562L40.6362 91.2132ZM41.9643 56.7063L29.5 63.6546L29.5 62.4896L40.6362 56.2868L40.8929 56.1438L40.8929 55.85L40.8929 49.5L41.9643 49.5L41.9643 56.7063ZM56.4643 80.9563L43.5103 88.1776L30.5461 80.9562L30.5461 66.5438L43.5103 59.3224L56.4643 66.5437L56.4643 80.9563Z" stroke="#D4B43C" stroke-opacity="0.6"/>
</g>
<g style="mix-blend-mode:multiply" clip-path="url(#clip28_35_2151)">
<path d="M84.1362 80.5368L84.3929 80.3938L84.3929 80.1L84.3929 67.4L84.3929 67.1062L84.1362 66.9632L72.7537 60.6232L72.5103 60.4876L72.2669 60.6233L60.8741 66.9733L60.6175 67.1163L60.6175 67.41L60.6175 80.1L60.6175 80.394L60.8744 80.5369L72.2672 86.8769L72.5105 87.0123L72.7537 86.8768L84.1362 80.5368ZM75.3844 91.2133L75.1279 91.3563L75.1279 91.65L75.1279 97.5L74.0564 97.5L74.0564 90.7936L86.5 83.8515L86.5 85.0163L75.3844 91.2133ZM74.0564 56.7064L74.0564 49.5L75.1279 49.5L75.1279 55.85L75.1279 56.1437L75.3844 56.2867L86.5 62.4837L86.5 63.6485L74.0564 56.7064ZM69.6362 91.2132L58.5 85.0104L58.5 83.8454L70.9643 90.7937L70.9643 97.5L69.8929 97.5L69.8929 91.65L69.8929 91.3562L69.6362 91.2132ZM70.9643 56.7063L58.5 63.6546L58.5 62.4896L69.6362 56.2868L69.8929 56.1438L69.8929 55.85L69.8929 49.5L70.9643 49.5L70.9643 56.7063ZM85.4643 80.9563L72.5103 88.1776L59.5461 80.9562L59.5461 66.5438L72.5103 59.3224L85.4643 66.5437L85.4643 80.9563Z" stroke="#D4B43C" stroke-opacity="0.6"/>
</g>
<g style="mix-blend-mode:multiply" clip-path="url(#clip29_35_2151)">
<path d="M84.1362 80.5368L84.3929 80.3938L84.3929 80.1L84.3929 67.4L84.3929 67.1062L84.1362 66.9632L72.7537 60.6232L72.5103 60.4876L72.2669 60.6233L60.8741 66.9733L60.6175 67.1163L60.6175 67.41L60.6175 80.1L60.6175 80.394L60.8744 80.5369L72.2672 86.8769L72.5105 87.0123L72.7537 86.8768L84.1362 80.5368ZM75.3844 91.2133L75.1279 91.3563L75.1279 91.65L75.1279 97.5L74.0564 97.5L74.0564 90.7936L86.5 83.8515L86.5 85.0163L75.3844 91.2133ZM74.0564 56.7064L74.0564 49.5L75.1279 49.5L75.1279 55.85L75.1279 56.1437L75.3844 56.2867L86.5 62.4837L86.5 63.6485L74.0564 56.7064ZM69.6362 91.2132L58.5 85.0104L58.5 83.8454L70.9643 90.7937L70.9643 97.5L69.8929 97.5L69.8929 91.65L69.8929 91.3562L69.6362 91.2132ZM70.9643 56.7063L58.5 63.6546L58.5 62.4896L69.6362 56.2868L69.8929 56.1438L69.8929 55.85L69.8929 49.5L70.9643 49.5L70.9643 56.7063ZM85.4643 80.9563L72.5103 88.1776L59.5461 80.9562L59.5461 66.5438L72.5103 59.3224L85.4643 66.5437L85.4643 80.9563Z" stroke="#D4B43C" stroke-opacity="0.6"/>
</g>
<g style="mix-blend-mode:multiply" clip-path="url(#clip30_35_2151)">
<path d="M113.136 80.5368L113.393 80.3938L113.393 80.1L113.393 67.4L113.393 67.1062L113.136 66.9632L101.754 60.6232L101.51 60.4876L101.267 60.6233L89.8741 66.9733L89.6175 67.1163L89.6175 67.41L89.6175 80.1L89.6175 80.394L89.8744 80.5369L101.267 86.8769L101.51 87.0123L101.754 86.8768L113.136 80.5368ZM104.384 91.2133L104.128 91.3563L104.128 91.65L104.128 97.5L103.056 97.5L103.056 90.7936L115.5 83.8515L115.5 85.0163L104.384 91.2133ZM103.056 56.7064L103.056 49.5L104.128 49.5L104.128 55.85L104.128 56.1437L104.384 56.2867L115.5 62.4837L115.5 63.6485L103.056 56.7064ZM98.6362 91.2132L87.5 85.0104L87.5 83.8454L99.9643 90.7937L99.9643 97.5L98.8929 97.5L98.8929 91.65L98.8929 91.3562L98.6362 91.2132ZM99.9643 56.7063L87.5 63.6546L87.5 62.4896L98.6362 56.2868L98.8929 56.1438L98.8929 55.85L98.8929 49.5L99.9643 49.5L99.9643 56.7063ZM114.464 80.9563L101.51 88.1776L88.5461 80.9562L88.5461 66.5438L101.51 59.3224L114.464 66.5437L114.464 80.9563Z" stroke="#D4B43C" stroke-opacity="0.6"/>
</g>
<g style="mix-blend-mode:multiply" clip-path="url(#clip31_35_2151)">
<path d="M113.136 80.5368L113.393 80.3938L113.393 80.1L113.393 67.4L113.393 67.1062L113.136 66.9632L101.754 60.6232L101.51 60.4876L101.267 60.6233L89.8741 66.9733L89.6175 67.1163L89.6175 67.41L89.6175 80.1L89.6175 80.394L89.8744 80.5369L101.267 86.8769L101.51 87.0123L101.754 86.8768L113.136 80.5368ZM104.384 91.2133L104.128 91.3563L104.128 91.65L104.128 97.5L103.056 97.5L103.056 90.7936L115.5 83.8515L115.5 85.0163L104.384 91.2133ZM103.056 56.7064L103.056 49.5L104.128 49.5L104.128 55.85L104.128 56.1437L104.384 56.2867L115.5 62.4837L115.5 63.6485L103.056 56.7064ZM98.6362 91.2132L87.5 85.0104L87.5 83.8454L99.9643 90.7937L99.9643 97.5L98.8929 97.5L98.8929 91.65L98.8929 91.3562L98.6362 91.2132ZM99.9643 56.7063L87.5 63.6546L87.5 62.4896L98.6362 56.2868L98.8929 56.1438L98.8929 55.85L98.8929 49.5L99.9643 49.5L99.9643 56.7063ZM114.464 80.9563L101.51 88.1776L88.5461 80.9562L88.5461 66.5438L101.51 59.3224L114.464 66.5437L114.464 80.9563Z" stroke="#D4B43C" stroke-opacity="0.6"/>
</g>
<g style="mix-blend-mode:multiply" clip-path="url(#clip32_35_2151)">
<path d="M142.136 80.5368L142.393 80.3938L142.393 80.1L142.393 67.4L142.393 67.1062L142.136 66.9632L130.754 60.6232L130.51 60.4876L130.267 60.6233L118.874 66.9733L118.618 67.1163L118.618 67.41L118.618 80.1L118.618 80.394L118.874 80.5369L130.267 86.8769L130.51 87.0123L130.754 86.8768L142.136 80.5368ZM133.384 91.2133L133.128 91.3563L133.128 91.65L133.128 97.5L132.056 97.5L132.056 90.7936L144.5 83.8515L144.5 85.0163L133.384 91.2133ZM132.056 56.7064L132.056 49.5L133.128 49.5L133.128 55.85L133.128 56.1437L133.384 56.2867L144.5 62.4837L144.5 63.6485L132.056 56.7064ZM127.636 91.2132L116.5 85.0104L116.5 83.8454L128.964 90.7937L128.964 97.5L127.893 97.5L127.893 91.65L127.893 91.3562L127.636 91.2132ZM128.964 56.7063L116.5 63.6546L116.5 62.4896L127.636 56.2868L127.893 56.1438L127.893 55.85L127.893 49.5L128.964 49.5L128.964 56.7063ZM143.464 80.9563L130.51 88.1776L117.546 80.9562L117.546 66.5438L130.51 59.3224L143.464 66.5437L143.464 80.9563Z" stroke="#D4B43C" stroke-opacity="0.6"/>
</g>
<g style="mix-blend-mode:multiply" clip-path="url(#clip33_35_2151)">
<path d="M142.136 80.5368L142.393 80.3938L142.393 80.1L142.393 67.4L142.393 67.1062L142.136 66.9632L130.754 60.6232L130.51 60.4876L130.267 60.6233L118.874 66.9733L118.618 67.1163L118.618 67.41L118.618 80.1L118.618 80.394L118.874 80.5369L130.267 86.8769L130.51 87.0123L130.754 86.8768L142.136 80.5368ZM133.384 91.2133L133.128 91.3563L133.128 91.65L133.128 97.5L132.056 97.5L132.056 90.7936L144.5 83.8515L144.5 85.0163L133.384 91.2133ZM132.056 56.7064L132.056 49.5L133.128 49.5L133.128 55.85L133.128 56.1437L133.384 56.2867L144.5 62.4837L144.5 63.6485L132.056 56.7064ZM127.636 91.2132L116.5 85.0104L116.5 83.8454L128.964 90.7937L128.964 97.5L127.893 97.5L127.893 91.65L127.893 91.3562L127.636 91.2132ZM128.964 56.7063L116.5 63.6546L116.5 62.4896L127.636 56.2868L127.893 56.1438L127.893 55.85L127.893 49.5L128.964 49.5L128.964 56.7063ZM143.464 80.9563L130.51 88.1776L117.546 80.9562L117.546 66.5438L130.51 59.3224L143.464 66.5437L143.464 80.9563Z" stroke="#D4B43C" stroke-opacity="0.6"/>
</g>
<g style="mix-blend-mode:multiply" clip-path="url(#clip34_35_2151)">
<path d="M171.136 80.5368L171.393 80.3938L171.393 80.1L171.393 67.4L171.393 67.1062L171.136 66.9632L159.754 60.6232L159.51 60.4876L159.267 60.6233L147.874 66.9733L147.618 67.1163L147.618 67.41L147.618 80.1L147.618 80.394L147.874 80.5369L159.267 86.8769L159.51 87.0123L159.754 86.8768L171.136 80.5368ZM162.384 91.2133L162.128 91.3563L162.128 91.65L162.128 97.5L161.056 97.5L161.056 90.7936L173.5 83.8515L173.5 85.0163L162.384 91.2133ZM161.056 56.7064L161.056 49.5L162.128 49.5L162.128 55.85L162.128 56.1437L162.384 56.2867L173.5 62.4837L173.5 63.6485L161.056 56.7064ZM156.636 91.2132L145.5 85.0104L145.5 83.8454L157.964 90.7937L157.964 97.5L156.893 97.5L156.893 91.65L156.893 91.3562L156.636 91.2132ZM157.964 56.7063L145.5 63.6546L145.5 62.4896L156.636 56.2868L156.893 56.1438L156.893 55.85L156.893 49.5L157.964 49.5L157.964 56.7063ZM172.464 80.9563L159.51 88.1776L146.546 80.9562L146.546 66.5438L159.51 59.3224L172.464 66.5437L172.464 80.9563Z" stroke="#D4B43C" stroke-opacity="0.6"/>
</g>
<g style="mix-blend-mode:multiply" clip-path="url(#clip35_35_2151)">
<path d="M171.136 80.5368L171.393 80.3938L171.393 80.1L171.393 67.4L171.393 67.1062L171.136 66.9632L159.754 60.6232L159.51 60.4876L159.267 60.6233L147.874 66.9733L147.618 67.1163L147.618 67.41L147.618 80.1L147.618 80.394L147.874 80.5369L159.267 86.8769L159.51 87.0123L159.754 86.8768L171.136 80.5368ZM162.384 91.2133L162.128 91.3563L162.128 91.65L162.128 97.5L161.056 97.5L161.056 90.7936L173.5 83.8515L173.5 85.0163L162.384 91.2133ZM161.056 56.7064L161.056 49.5L162.128 49.5L162.128 55.85L162.128 56.1437L162.384 56.2867L173.5 62.4837L173.5 63.6485L161.056 56.7064ZM156.636 91.2132L145.5 85.0104L145.5 83.8454L157.964 90.7937L157.964 97.5L156.893 97.5L156.893 91.65L156.893 91.3562L156.636 91.2132ZM157.964 56.7063L145.5 63.6546L145.5 62.4896L156.636 56.2868L156.893 56.1438L156.893 55.85L156.893 49.5L157.964 49.5L157.964 56.7063ZM172.464 80.9563L159.51 88.1776L146.546 80.9562L146.546 66.5438L159.51 59.3224L172.464 66.5437L172.464 80.9563Z" stroke="#D4B43C" stroke-opacity="0.6"/>
</g>
<g style="mix-blend-mode:multiply" clip-path="url(#clip36_35_2151)">
<path d="M200.136 80.5368L200.393 80.3938L200.393 80.1L200.393 67.4L200.393 67.1062L200.136 66.9632L188.754 60.6232L188.51 60.4876L188.267 60.6233L176.874 66.9733L176.618 67.1163L176.618 67.41L176.618 80.1L176.618 80.394L176.874 80.5369L188.267 86.8769L188.51 87.0123L188.754 86.8768L200.136 80.5368ZM191.384 91.2133L191.128 91.3563L191.128 91.65L191.128 97.5L190.056 97.5L190.056 90.7936L202.5 83.8515L202.5 85.0163L191.384 91.2133ZM190.056 56.7064L190.056 49.5L191.128 49.5L191.128 55.85L191.128 56.1437L191.384 56.2867L202.5 62.4837L202.5 63.6485L190.056 56.7064ZM185.636 91.2132L174.5 85.0104L174.5 83.8454L186.964 90.7937L186.964 97.5L185.893 97.5L185.893 91.65L185.893 91.3562L185.636 91.2132ZM186.964 56.7063L174.5 63.6546L174.5 62.4896L185.636 56.2868L185.893 56.1438L185.893 55.85L185.893 49.5L186.964 49.5L186.964 56.7063ZM201.464 80.9563L188.51 88.1776L175.546 80.9562L175.546 66.5438L188.51 59.3224L201.464 66.5437L201.464 80.9563Z" stroke="#D4B43C" stroke-opacity="0.6"/>
</g>
<g style="mix-blend-mode:multiply" clip-path="url(#clip37_35_2151)">
<path d="M200.136 80.5368L200.393 80.3938L200.393 80.1L200.393 67.4L200.393 67.1062L200.136 66.9632L188.754 60.6232L188.51 60.4876L188.267 60.6233L176.874 66.9733L176.618 67.1163L176.618 67.41L176.618 80.1L176.618 80.394L176.874 80.5369L188.267 86.8769L188.51 87.0123L188.754 86.8768L200.136 80.5368ZM191.384 91.2133L191.128 91.3563L191.128 91.65L191.128 97.5L190.056 97.5L190.056 90.7936L202.5 83.8515L202.5 85.0163L191.384 91.2133ZM190.056 56.7064L190.056 49.5L191.128 49.5L191.128 55.85L191.128 56.1437L191.384 56.2867L202.5 62.4837L202.5 63.6485L190.056 56.7064ZM185.636 91.2132L174.5 85.0104L174.5 83.8454L186.964 90.7937L186.964 97.5L185.893 97.5L185.893 91.65L185.893 91.3562L185.636 91.2132ZM186.964 56.7063L174.5 63.6546L174.5 62.4896L185.636 56.2868L185.893 56.1438L185.893 55.85L185.893 49.5L186.964 49.5L186.964 56.7063ZM201.464 80.9563L188.51 88.1776L175.546 80.9562L175.546 66.5438L188.51 59.3224L201.464 66.5437L201.464 80.9563Z" stroke="#D4B43C" stroke-opacity="0.6"/>
</g>
<g style="mix-blend-mode:multiply" clip-path="url(#clip38_35_2151)">
<path d="M229.136 80.5368L229.393 80.3938L229.393 80.1L229.393 67.4L229.393 67.1062L229.136 66.9632L217.754 60.6232L217.51 60.4876L217.267 60.6233L205.874 66.9733L205.618 67.1163L205.618 67.41L205.618 80.1L205.618 80.394L205.874 80.5369L217.267 86.8769L217.51 87.0123L217.754 86.8768L229.136 80.5368ZM220.384 91.2133L220.128 91.3563L220.128 91.65L220.128 97.5L219.056 97.5L219.056 90.7936L231.5 83.8515L231.5 85.0163L220.384 91.2133ZM219.056 56.7064L219.056 49.5L220.128 49.5L220.128 55.85L220.128 56.1437L220.384 56.2867L231.5 62.4837L231.5 63.6485L219.056 56.7064ZM214.636 91.2132L203.5 85.0104L203.5 83.8454L215.964 90.7937L215.964 97.5L214.893 97.5L214.893 91.65L214.893 91.3562L214.636 91.2132ZM215.964 56.7063L203.5 63.6546L203.5 62.4896L214.636 56.2868L214.893 56.1438L214.893 55.85L214.893 49.5L215.964 49.5L215.964 56.7063ZM230.464 80.9563L217.51 88.1776L204.546 80.9562L204.546 66.5438L217.51 59.3224L230.464 66.5437L230.464 80.9563Z" stroke="#D4B43C" stroke-opacity="0.6"/>
</g>
<g style="mix-blend-mode:multiply" clip-path="url(#clip39_35_2151)">
<path d="M229.136 80.5368L229.393 80.3938L229.393 80.1L229.393 67.4L229.393 67.1062L229.136 66.9632L217.754 60.6232L217.51 60.4876L217.267 60.6233L205.874 66.9733L205.618 67.1163L205.618 67.41L205.618 80.1L205.618 80.394L205.874 80.5369L217.267 86.8769L217.51 87.0123L217.754 86.8768L229.136 80.5368ZM220.384 91.2133L220.128 91.3563L220.128 91.65L220.128 97.5L219.056 97.5L219.056 90.7936L231.5 83.8515L231.5 85.0163L220.384 91.2133ZM219.056 56.7064L219.056 49.5L220.128 49.5L220.128 55.85L220.128 56.1437L220.384 56.2867L231.5 62.4837L231.5 63.6485L219.056 56.7064ZM214.636 91.2132L203.5 85.0104L203.5 83.8454L215.964 90.7937L215.964 97.5L214.893 97.5L214.893 91.65L214.893 91.3562L214.636 91.2132ZM215.964 56.7063L203.5 63.6546L203.5 62.4896L214.636 56.2868L214.893 56.1438L214.893 55.85L214.893 49.5L215.964 49.5L215.964 56.7063ZM230.464 80.9563L217.51 88.1776L204.546 80.9562L204.546 66.5438L217.51 59.3224L230.464 66.5437L230.464 80.9563Z" stroke="#D4B43C" stroke-opacity="0.6"/>
</g>
<g style="mix-blend-mode:multiply" clip-path="url(#clip40_35_2151)">
<path d="M258.136 80.5368L258.393 80.3938L258.393 80.1L258.393 67.4L258.393 67.1062L258.136 66.9632L246.754 60.6232L246.51 60.4876L246.267 60.6233L234.874 66.9733L234.618 67.1163L234.618 67.41L234.618 80.1L234.618 80.394L234.874 80.5369L246.267 86.8769L246.51 87.0123L246.754 86.8768L258.136 80.5368ZM249.384 91.2133L249.128 91.3563L249.128 91.65L249.128 97.5L248.056 97.5L248.056 90.7936L260.5 83.8515L260.5 85.0163L249.384 91.2133ZM248.056 56.7064L248.056 49.5L249.128 49.5L249.128 55.85L249.128 56.1437L249.384 56.2867L260.5 62.4837L260.5 63.6485L248.056 56.7064ZM243.636 91.2132L232.5 85.0104L232.5 83.8454L244.964 90.7937L244.964 97.5L243.893 97.5L243.893 91.65L243.893 91.3562L243.636 91.2132ZM244.964 56.7063L232.5 63.6546L232.5 62.4896L243.636 56.2868L243.893 56.1438L243.893 55.85L243.893 49.5L244.964 49.5L244.964 56.7063ZM259.464 80.9563L246.51 88.1776L233.546 80.9562L233.546 66.5438L246.51 59.3224L259.464 66.5437L259.464 80.9563Z" stroke="#D4B43C" stroke-opacity="0.6"/>
</g>
<g style="mix-blend-mode:multiply" clip-path="url(#clip41_35_2151)">
<path d="M258.136 80.5368L258.393 80.3938L258.393 80.1L258.393 67.4L258.393 67.1062L258.136 66.9632L246.754 60.6232L246.51 60.4876L246.267 60.6233L234.874 66.9733L234.618 67.1163L234.618 67.41L234.618 80.1L234.618 80.394L234.874 80.5369L246.267 86.8769L246.51 87.0123L246.754 86.8768L258.136 80.5368ZM249.384 91.2133L249.128 91.3563L249.128 91.65L249.128 97.5L248.056 97.5L248.056 90.7936L260.5 83.8515L260.5 85.0163L249.384 91.2133ZM248.056 56.7064L248.056 49.5L249.128 49.5L249.128 55.85L249.128 56.1437L249.384 56.2867L260.5 62.4837L260.5 63.6485L248.056 56.7064ZM243.636 91.2132L232.5 85.0104L232.5 83.8454L244.964 90.7937L244.964 97.5L243.893 97.5L243.893 91.65L243.893 91.3562L243.636 91.2132ZM244.964 56.7063L232.5 63.6546L232.5 62.4896L243.636 56.2868L243.893 56.1438L243.893 55.85L243.893 49.5L244.964 49.5L244.964 56.7063ZM259.464 80.9563L246.51 88.1776L233.546 80.9562L233.546 66.5438L246.51 59.3224L259.464 66.5437L259.464 80.9563Z" stroke="#D4B43C" stroke-opacity="0.6"/>
</g>
<g style="mix-blend-mode:multiply" clip-path="url(#clip42_35_2151)">
<path d="M287.136 80.5368L287.393 80.3938L287.393 80.1L287.393 67.4L287.393 67.1062L287.136 66.9632L275.754 60.6232L275.51 60.4876L275.267 60.6233L263.874 66.9733L263.618 67.1163L263.618 67.41L263.618 80.1L263.618 80.394L263.874 80.5369L275.267 86.8769L275.51 87.0123L275.754 86.8768L287.136 80.5368ZM278.384 91.2133L278.128 91.3563L278.128 91.65L278.128 97.5L277.056 97.5L277.056 90.7936L289.5 83.8515L289.5 85.0163L278.384 91.2133ZM277.056 56.7064L277.056 49.5L278.128 49.5L278.128 55.85L278.128 56.1437L278.384 56.2867L289.5 62.4837L289.5 63.6485L277.056 56.7064ZM272.636 91.2132L261.5 85.0104L261.5 83.8454L273.964 90.7937L273.964 97.5L272.893 97.5L272.893 91.65L272.893 91.3562L272.636 91.2132ZM273.964 56.7063L261.5 63.6546L261.5 62.4896L272.636 56.2868L272.893 56.1438L272.893 55.85L272.893 49.5L273.964 49.5L273.964 56.7063ZM288.464 80.9563L275.51 88.1776L262.546 80.9562L262.546 66.5438L275.51 59.3224L288.464 66.5437L288.464 80.9563Z" stroke="#D4B43C" stroke-opacity="0.6"/>
</g>
<g style="mix-blend-mode:multiply" clip-path="url(#clip43_35_2151)">
<path d="M287.136 80.5368L287.393 80.3938L287.393 80.1L287.393 67.4L287.393 67.1062L287.136 66.9632L275.754 60.6232L275.51 60.4876L275.267 60.6233L263.874 66.9733L263.618 67.1163L263.618 67.41L263.618 80.1L263.618 80.394L263.874 80.5369L275.267 86.8769L275.51 87.0123L275.754 86.8768L287.136 80.5368ZM278.384 91.2133L278.128 91.3563L278.128 91.65L278.128 97.5L277.056 97.5L277.056 90.7936L289.5 83.8515L289.5 85.0163L278.384 91.2133ZM277.056 56.7064L277.056 49.5L278.128 49.5L278.128 55.85L278.128 56.1437L278.384 56.2867L289.5 62.4837L289.5 63.6485L277.056 56.7064ZM272.636 91.2132L261.5 85.0104L261.5 83.8454L273.964 90.7937L273.964 97.5L272.893 97.5L272.893 91.65L272.893 91.3562L272.636 91.2132ZM273.964 56.7063L261.5 63.6546L261.5 62.4896L272.636 56.2868L272.893 56.1438L272.893 55.85L272.893 49.5L273.964 49.5L273.964 56.7063ZM288.464 80.9563L275.51 88.1776L262.546 80.9562L262.546 66.5438L275.51 59.3224L288.464 66.5437L288.464 80.9563Z" stroke="#D4B43C" stroke-opacity="0.6"/>
</g>
<g style="mix-blend-mode:multiply" clip-path="url(#clip44_35_2151)">
<path d="M316.136 80.5368L316.393 80.3938L316.393 80.1L316.393 67.4L316.393 67.1062L316.136 66.9632L304.754 60.6232L304.51 60.4876L304.267 60.6233L292.874 66.9733L292.618 67.1163L292.618 67.41L292.618 80.1L292.618 80.394L292.874 80.5369L304.267 86.8769L304.51 87.0123L304.754 86.8768L316.136 80.5368ZM307.384 91.2133L307.128 91.3563L307.128 91.65L307.128 97.5L306.056 97.5L306.056 90.7936L318.5 83.8515L318.5 85.0163L307.384 91.2133ZM306.056 56.7064L306.056 49.5L307.128 49.5L307.128 55.85L307.128 56.1437L307.384 56.2867L318.5 62.4837L318.5 63.6485L306.056 56.7064ZM301.636 91.2132L290.5 85.0104L290.5 83.8454L302.964 90.7937L302.964 97.5L301.893 97.5L301.893 91.65L301.893 91.3562L301.636 91.2132ZM302.964 56.7063L290.5 63.6546L290.5 62.4896L301.636 56.2868L301.893 56.1438L301.893 55.85L301.893 49.5L302.964 49.5L302.964 56.7063ZM317.464 80.9563L304.51 88.1776L291.546 80.9562L291.546 66.5438L304.51 59.3224L317.464 66.5437L317.464 80.9563Z" stroke="#D4B43C" stroke-opacity="0.6"/>
</g>
<g style="mix-blend-mode:multiply" clip-path="url(#clip45_35_2151)">
<path d="M316.136 80.5368L316.393 80.3938L316.393 80.1L316.393 67.4L316.393 67.1062L316.136 66.9632L304.754 60.6232L304.51 60.4876L304.267 60.6233L292.874 66.9733L292.618 67.1163L292.618 67.41L292.618 80.1L292.618 80.394L292.874 80.5369L304.267 86.8769L304.51 87.0123L304.754 86.8768L316.136 80.5368ZM307.384 91.2133L307.128 91.3563L307.128 91.65L307.128 97.5L306.056 97.5L306.056 90.7936L318.5 83.8515L318.5 85.0163L307.384 91.2133ZM306.056 56.7064L306.056 49.5L307.128 49.5L307.128 55.85L307.128 56.1437L307.384 56.2867L318.5 62.4837L318.5 63.6485L306.056 56.7064ZM301.636 91.2132L290.5 85.0104L290.5 83.8454L302.964 90.7937L302.964 97.5L301.893 97.5L301.893 91.65L301.893 91.3562L301.636 91.2132ZM302.964 56.7063L290.5 63.6546L290.5 62.4896L301.636 56.2868L301.893 56.1438L301.893 55.85L301.893 49.5L302.964 49.5L302.964 56.7063ZM317.464 80.9563L304.51 88.1776L291.546 80.9562L291.546 66.5438L304.51 59.3224L317.464 66.5437L317.464 80.9563Z" stroke="#D4B43C" stroke-opacity="0.6"/>
</g>
<g style="mix-blend-mode:multiply" clip-path="url(#clip46_35_2151)">
<path d="M345.136 80.5368L345.393 80.3938L345.393 80.1L345.393 67.4L345.393 67.1062L345.136 66.9632L333.754 60.6232L333.51 60.4876L333.267 60.6233L321.874 66.9733L321.618 67.1163L321.618 67.41L321.618 80.1L321.618 80.394L321.874 80.5369L333.267 86.8769L333.51 87.0123L333.754 86.8768L345.136 80.5368ZM336.384 91.2133L336.128 91.3563L336.128 91.65L336.128 97.5L335.056 97.5L335.056 90.7936L347.5 83.8515L347.5 85.0163L336.384 91.2133ZM335.056 56.7064L335.056 49.5L336.128 49.5L336.128 55.85L336.128 56.1437L336.384 56.2867L347.5 62.4837L347.5 63.6485L335.056 56.7064ZM330.636 91.2132L319.5 85.0104L319.5 83.8454L331.964 90.7937L331.964 97.5L330.893 97.5L330.893 91.65L330.893 91.3562L330.636 91.2132ZM331.964 56.7063L319.5 63.6546L319.5 62.4896L330.636 56.2868L330.893 56.1438L330.893 55.85L330.893 49.5L331.964 49.5L331.964 56.7063ZM346.464 80.9563L333.51 88.1776L320.546 80.9562L320.546 66.5438L333.51 59.3224L346.464 66.5437L346.464 80.9563Z" stroke="#D4B43C" stroke-opacity="0.6"/>
</g>
<g style="mix-blend-mode:multiply" clip-path="url(#clip47_35_2151)">
<path d="M345.136 80.5368L345.393 80.3938L345.393 80.1L345.393 67.4L345.393 67.1062L345.136 66.9632L333.754 60.6232L333.51 60.4876L333.267 60.6233L321.874 66.9733L321.618 67.1163L321.618 67.41L321.618 80.1L321.618 80.394L321.874 80.5369L333.267 86.8769L333.51 87.0123L333.754 86.8768L345.136 80.5368ZM336.384 91.2133L336.128 91.3563L336.128 91.65L336.128 97.5L335.056 97.5L335.056 90.7936L347.5 83.8515L347.5 85.0163L336.384 91.2133ZM335.056 56.7064L335.056 49.5L336.128 49.5L336.128 55.85L336.128 56.1437L336.384 56.2867L347.5 62.4837L347.5 63.6485L335.056 56.7064ZM330.636 91.2132L319.5 85.0104L319.5 83.8454L331.964 90.7937L331.964 97.5L330.893 97.5L330.893 91.65L330.893 91.3562L330.636 91.2132ZM331.964 56.7063L319.5 63.6546L319.5 62.4896L330.636 56.2868L330.893 56.1438L330.893 55.85L330.893 49.5L331.964 49.5L331.964 56.7063ZM346.464 80.9563L333.51 88.1776L320.546 80.9562L320.546 66.5438L333.51 59.3224L346.464 66.5437L346.464 80.9563Z" stroke="#D4B43C" stroke-opacity="0.6"/>
</g>
<g style="mix-blend-mode:multiply" clip-path="url(#clip48_35_2151)">
<path d="M26.1362 129.537L26.3929 129.394L26.3929 129.1L26.3929 116.4L26.3929 116.106L26.1362 115.963L14.7537 109.623L14.5103 109.488L14.2669 109.623L2.87408 115.973L2.6175 116.116L2.6175 116.41L2.6175 129.1L2.6175 129.394L2.87437 129.537L14.2672 135.877L14.5105 136.012L14.7537 135.877L26.1362 129.537ZM17.3844 140.213L17.1279 140.356L17.1279 140.65L17.1279 146.5L16.0564 146.5L16.0564 139.794L28.5 132.851L28.5 134.016L17.3844 140.213ZM16.0564 105.706L16.0564 98.5L17.1279 98.5L17.1279 104.85L17.1279 105.144L17.3844 105.287L28.5 111.484L28.5 112.649L16.0564 105.706ZM11.6362 140.213L0.500001 134.01L0.500001 132.845L12.9643 139.794L12.9643 146.5L11.8929 146.5L11.8929 140.65L11.8929 140.356L11.6362 140.213ZM12.9643 105.706L0.500003 112.655L0.500003 111.49L11.6362 105.287L11.8929 105.144L11.8929 104.85L11.8929 98.5L12.9643 98.5L12.9643 105.706ZM27.4643 129.956L14.5103 137.178L1.54607 129.956L1.54607 115.544L14.5103 108.322L27.4643 115.544L27.4643 129.956Z" stroke="#D4B43C" stroke-opacity="0.6"/>
</g>
<g style="mix-blend-mode:multiply" clip-path="url(#clip49_35_2151)">
<path d="M26.1362 129.537L26.3929 129.394L26.3929 129.1L26.3929 116.4L26.3929 116.106L26.1362 115.963L14.7537 109.623L14.5103 109.488L14.2669 109.623L2.87408 115.973L2.6175 116.116L2.6175 116.41L2.6175 129.1L2.6175 129.394L2.87437 129.537L14.2672 135.877L14.5105 136.012L14.7537 135.877L26.1362 129.537ZM17.3844 140.213L17.1279 140.356L17.1279 140.65L17.1279 146.5L16.0564 146.5L16.0564 139.794L28.5 132.851L28.5 134.016L17.3844 140.213ZM16.0564 105.706L16.0564 98.5L17.1279 98.5L17.1279 104.85L17.1279 105.144L17.3844 105.287L28.5 111.484L28.5 112.649L16.0564 105.706ZM11.6362 140.213L0.500001 134.01L0.500001 132.845L12.9643 139.794L12.9643 146.5L11.8929 146.5L11.8929 140.65L11.8929 140.356L11.6362 140.213ZM12.9643 105.706L0.500003 112.655L0.500003 111.49L11.6362 105.287L11.8929 105.144L11.8929 104.85L11.8929 98.5L12.9643 98.5L12.9643 105.706ZM27.4643 129.956L14.5103 137.178L1.54607 129.956L1.54607 115.544L14.5103 108.322L27.4643 115.544L27.4643 129.956Z" stroke="#D4B43C" stroke-opacity="0.6"/>
</g>
<g style="mix-blend-mode:multiply" clip-path="url(#clip50_35_2151)">
<path d="M55.1362 129.537L55.3929 129.394L55.3929 129.1L55.3929 116.4L55.3929 116.106L55.1362 115.963L43.7537 109.623L43.5103 109.488L43.2669 109.623L31.8741 115.973L31.6175 116.116L31.6175 116.41L31.6175 129.1L31.6175 129.394L31.8744 129.537L43.2672 135.877L43.5105 136.012L43.7537 135.877L55.1362 129.537ZM46.3844 140.213L46.1279 140.356L46.1279 140.65L46.1279 146.5L45.0564 146.5L45.0564 139.794L57.5 132.851L57.5 134.016L46.3844 140.213ZM45.0564 105.706L45.0564 98.5L46.1279 98.5L46.1279 104.85L46.1279 105.144L46.3844 105.287L57.5 111.484L57.5 112.649L45.0564 105.706ZM40.6362 140.213L29.5 134.01L29.5 132.845L41.9643 139.794L41.9643 146.5L40.8929 146.5L40.8929 140.65L40.8929 140.356L40.6362 140.213ZM41.9643 105.706L29.5 112.655L29.5 111.49L40.6362 105.287L40.8929 105.144L40.8929 104.85L40.8929 98.5L41.9643 98.5L41.9643 105.706ZM56.4643 129.956L43.5103 137.178L30.5461 129.956L30.5461 115.544L43.5103 108.322L56.4643 115.544L56.4643 129.956Z" stroke="#D4B43C" stroke-opacity="0.6"/>
</g>
<g style="mix-blend-mode:multiply" clip-path="url(#clip51_35_2151)">
<path d="M55.1362 129.537L55.3929 129.394L55.3929 129.1L55.3929 116.4L55.3929 116.106L55.1362 115.963L43.7537 109.623L43.5103 109.488L43.2669 109.623L31.8741 115.973L31.6175 116.116L31.6175 116.41L31.6175 129.1L31.6175 129.394L31.8744 129.537L43.2672 135.877L43.5105 136.012L43.7537 135.877L55.1362 129.537ZM46.3844 140.213L46.1279 140.356L46.1279 140.65L46.1279 146.5L45.0564 146.5L45.0564 139.794L57.5 132.851L57.5 134.016L46.3844 140.213ZM45.0564 105.706L45.0564 98.5L46.1279 98.5L46.1279 104.85L46.1279 105.144L46.3844 105.287L57.5 111.484L57.5 112.649L45.0564 105.706ZM40.6362 140.213L29.5 134.01L29.5 132.845L41.9643 139.794L41.9643 146.5L40.8929 146.5L40.8929 140.65L40.8929 140.356L40.6362 140.213ZM41.9643 105.706L29.5 112.655L29.5 111.49L40.6362 105.287L40.8929 105.144L40.8929 104.85L40.8929 98.5L41.9643 98.5L41.9643 105.706ZM56.4643 129.956L43.5103 137.178L30.5461 129.956L30.5461 115.544L43.5103 108.322L56.4643 115.544L56.4643 129.956Z" stroke="#D4B43C" stroke-opacity="0.6"/>
</g>
<g style="mix-blend-mode:multiply" clip-path="url(#clip52_35_2151)">
<path d="M84.1362 129.537L84.3929 129.394L84.3929 129.1L84.3929 116.4L84.3929 116.106L84.1362 115.963L72.7537 109.623L72.5103 109.488L72.2669 109.623L60.8741 115.973L60.6175 116.116L60.6175 116.41L60.6175 129.1L60.6175 129.394L60.8744 129.537L72.2672 135.877L72.5105 136.012L72.7537 135.877L84.1362 129.537ZM75.3844 140.213L75.1279 140.356L75.1279 140.65L75.1279 146.5L74.0564 146.5L74.0564 139.794L86.5 132.851L86.5 134.016L75.3844 140.213ZM74.0564 105.706L74.0564 98.5L75.1279 98.5L75.1279 104.85L75.1279 105.144L75.3844 105.287L86.5 111.484L86.5 112.649L74.0564 105.706ZM69.6362 140.213L58.5 134.01L58.5 132.845L70.9643 139.794L70.9643 146.5L69.8929 146.5L69.8929 140.65L69.8929 140.356L69.6362 140.213ZM70.9643 105.706L58.5 112.655L58.5 111.49L69.6362 105.287L69.8929 105.144L69.8929 104.85L69.8929 98.5L70.9643 98.5L70.9643 105.706ZM85.4643 129.956L72.5103 137.178L59.5461 129.956L59.5461 115.544L72.5103 108.322L85.4643 115.544L85.4643 129.956Z" stroke="#D4B43C" stroke-opacity="0.6"/>
</g>
<g style="mix-blend-mode:multiply" clip-path="url(#clip53_35_2151)">
<path d="M84.1362 129.537L84.3929 129.394L84.3929 129.1L84.3929 116.4L84.3929 116.106L84.1362 115.963L72.7537 109.623L72.5103 109.488L72.2669 109.623L60.8741 115.973L60.6175 116.116L60.6175 116.41L60.6175 129.1L60.6175 129.394L60.8744 129.537L72.2672 135.877L72.5105 136.012L72.7537 135.877L84.1362 129.537ZM75.3844 140.213L75.1279 140.356L75.1279 140.65L75.1279 146.5L74.0564 146.5L74.0564 139.794L86.5 132.851L86.5 134.016L75.3844 140.213ZM74.0564 105.706L74.0564 98.5L75.1279 98.5L75.1279 104.85L75.1279 105.144L75.3844 105.287L86.5 111.484L86.5 112.649L74.0564 105.706ZM69.6362 140.213L58.5 134.01L58.5 132.845L70.9643 139.794L70.9643 146.5L69.8929 146.5L69.8929 140.65L69.8929 140.356L69.6362 140.213ZM70.9643 105.706L58.5 112.655L58.5 111.49L69.6362 105.287L69.8929 105.144L69.8929 104.85L69.8929 98.5L70.9643 98.5L70.9643 105.706ZM85.4643 129.956L72.5103 137.178L59.5461 129.956L59.5461 115.544L72.5103 108.322L85.4643 115.544L85.4643 129.956Z" stroke="#D4B43C" stroke-opacity="0.6"/>
</g>
<g style="mix-blend-mode:multiply" clip-path="url(#clip54_35_2151)">
<path d="M113.136 129.537L113.393 129.394L113.393 129.1L113.393 116.4L113.393 116.106L113.136 115.963L101.754 109.623L101.51 109.488L101.267 109.623L89.8741 115.973L89.6175 116.116L89.6175 116.41L89.6175 129.1L89.6175 129.394L89.8744 129.537L101.267 135.877L101.51 136.012L101.754 135.877L113.136 129.537ZM104.384 140.213L104.128 140.356L104.128 140.65L104.128 146.5L103.056 146.5L103.056 139.794L115.5 132.851L115.5 134.016L104.384 140.213ZM103.056 105.706L103.056 98.5L104.128 98.5L104.128 104.85L104.128 105.144L104.384 105.287L115.5 111.484L115.5 112.649L103.056 105.706ZM98.6362 140.213L87.5 134.01L87.5 132.845L99.9643 139.794L99.9643 146.5L98.8929 146.5L98.8929 140.65L98.8929 140.356L98.6362 140.213ZM99.9643 105.706L87.5 112.655L87.5 111.49L98.6362 105.287L98.8929 105.144L98.8929 104.85L98.8929 98.5L99.9643 98.5L99.9643 105.706ZM114.464 129.956L101.51 137.178L88.5461 129.956L88.5461 115.544L101.51 108.322L114.464 115.544L114.464 129.956Z" stroke="#D4B43C" stroke-opacity="0.6"/>
</g>
<g style="mix-blend-mode:multiply" clip-path="url(#clip55_35_2151)">
<path d="M113.136 129.537L113.393 129.394L113.393 129.1L113.393 116.4L113.393 116.106L113.136 115.963L101.754 109.623L101.51 109.488L101.267 109.623L89.8741 115.973L89.6175 116.116L89.6175 116.41L89.6175 129.1L89.6175 129.394L89.8744 129.537L101.267 135.877L101.51 136.012L101.754 135.877L113.136 129.537ZM104.384 140.213L104.128 140.356L104.128 140.65L104.128 146.5L103.056 146.5L103.056 139.794L115.5 132.851L115.5 134.016L104.384 140.213ZM103.056 105.706L103.056 98.5L104.128 98.5L104.128 104.85L104.128 105.144L104.384 105.287L115.5 111.484L115.5 112.649L103.056 105.706ZM98.6362 140.213L87.5 134.01L87.5 132.845L99.9643 139.794L99.9643 146.5L98.8929 146.5L98.8929 140.65L98.8929 140.356L98.6362 140.213ZM99.9643 105.706L87.5 112.655L87.5 111.49L98.6362 105.287L98.8929 105.144L98.8929 104.85L98.8929 98.5L99.9643 98.5L99.9643 105.706ZM114.464 129.956L101.51 137.178L88.5461 129.956L88.5461 115.544L101.51 108.322L114.464 115.544L114.464 129.956Z" stroke="#D4B43C" stroke-opacity="0.6"/>
</g>
<g style="mix-blend-mode:multiply" clip-path="url(#clip56_35_2151)">
<path d="M142.136 129.537L142.393 129.394L142.393 129.1L142.393 116.4L142.393 116.106L142.136 115.963L130.754 109.623L130.51 109.488L130.267 109.623L118.874 115.973L118.618 116.116L118.618 116.41L118.618 129.1L118.618 129.394L118.874 129.537L130.267 135.877L130.51 136.012L130.754 135.877L142.136 129.537ZM133.384 140.213L133.128 140.356L133.128 140.65L133.128 146.5L132.056 146.5L132.056 139.794L144.5 132.851L144.5 134.016L133.384 140.213ZM132.056 105.706L132.056 98.5L133.128 98.5L133.128 104.85L133.128 105.144L133.384 105.287L144.5 111.484L144.5 112.649L132.056 105.706ZM127.636 140.213L116.5 134.01L116.5 132.845L128.964 139.794L128.964 146.5L127.893 146.5L127.893 140.65L127.893 140.356L127.636 140.213ZM128.964 105.706L116.5 112.655L116.5 111.49L127.636 105.287L127.893 105.144L127.893 104.85L127.893 98.5L128.964 98.5L128.964 105.706ZM143.464 129.956L130.51 137.178L117.546 129.956L117.546 115.544L130.51 108.322L143.464 115.544L143.464 129.956Z" stroke="#D4B43C" stroke-opacity="0.6"/>
</g>
<g style="mix-blend-mode:multiply" clip-path="url(#clip57_35_2151)">
<path d="M142.136 129.537L142.393 129.394L142.393 129.1L142.393 116.4L142.393 116.106L142.136 115.963L130.754 109.623L130.51 109.488L130.267 109.623L118.874 115.973L118.618 116.116L118.618 116.41L118.618 129.1L118.618 129.394L118.874 129.537L130.267 135.877L130.51 136.012L130.754 135.877L142.136 129.537ZM133.384 140.213L133.128 140.356L133.128 140.65L133.128 146.5L132.056 146.5L132.056 139.794L144.5 132.851L144.5 134.016L133.384 140.213ZM132.056 105.706L132.056 98.5L133.128 98.5L133.128 104.85L133.128 105.144L133.384 105.287L144.5 111.484L144.5 112.649L132.056 105.706ZM127.636 140.213L116.5 134.01L116.5 132.845L128.964 139.794L128.964 146.5L127.893 146.5L127.893 140.65L127.893 140.356L127.636 140.213ZM128.964 105.706L116.5 112.655L116.5 111.49L127.636 105.287L127.893 105.144L127.893 104.85L127.893 98.5L128.964 98.5L128.964 105.706ZM143.464 129.956L130.51 137.178L117.546 129.956L117.546 115.544L130.51 108.322L143.464 115.544L143.464 129.956Z" stroke="#D4B43C" stroke-opacity="0.6"/>
</g>
<g style="mix-blend-mode:multiply" clip-path="url(#clip58_35_2151)">
<path d="M171.136 129.537L171.393 129.394L171.393 129.1L171.393 116.4L171.393 116.106L171.136 115.963L159.754 109.623L159.51 109.488L159.267 109.623L147.874 115.973L147.618 116.116L147.618 116.41L147.618 129.1L147.618 129.394L147.874 129.537L159.267 135.877L159.51 136.012L159.754 135.877L171.136 129.537ZM162.384 140.213L162.128 140.356L162.128 140.65L162.128 146.5L161.056 146.5L161.056 139.794L173.5 132.851L173.5 134.016L162.384 140.213ZM161.056 105.706L161.056 98.5L162.128 98.5L162.128 104.85L162.128 105.144L162.384 105.287L173.5 111.484L173.5 112.649L161.056 105.706ZM156.636 140.213L145.5 134.01L145.5 132.845L157.964 139.794L157.964 146.5L156.893 146.5L156.893 140.65L156.893 140.356L156.636 140.213ZM157.964 105.706L145.5 112.655L145.5 111.49L156.636 105.287L156.893 105.144L156.893 104.85L156.893 98.5L157.964 98.5L157.964 105.706ZM172.464 129.956L159.51 137.178L146.546 129.956L146.546 115.544L159.51 108.322L172.464 115.544L172.464 129.956Z" stroke="#D4B43C" stroke-opacity="0.6"/>
</g>
<g style="mix-blend-mode:multiply" clip-path="url(#clip59_35_2151)">
<path d="M171.136 129.537L171.393 129.394L171.393 129.1L171.393 116.4L171.393 116.106L171.136 115.963L159.754 109.623L159.51 109.488L159.267 109.623L147.874 115.973L147.618 116.116L147.618 116.41L147.618 129.1L147.618 129.394L147.874 129.537L159.267 135.877L159.51 136.012L159.754 135.877L171.136 129.537ZM162.384 140.213L162.128 140.356L162.128 140.65L162.128 146.5L161.056 146.5L161.056 139.794L173.5 132.851L173.5 134.016L162.384 140.213ZM161.056 105.706L161.056 98.5L162.128 98.5L162.128 104.85L162.128 105.144L162.384 105.287L173.5 111.484L173.5 112.649L161.056 105.706ZM156.636 140.213L145.5 134.01L145.5 132.845L157.964 139.794L157.964 146.5L156.893 146.5L156.893 140.65L156.893 140.356L156.636 140.213ZM157.964 105.706L145.5 112.655L145.5 111.49L156.636 105.287L156.893 105.144L156.893 104.85L156.893 98.5L157.964 98.5L157.964 105.706ZM172.464 129.956L159.51 137.178L146.546 129.956L146.546 115.544L159.51 108.322L172.464 115.544L172.464 129.956Z" stroke="#D4B43C" stroke-opacity="0.6"/>
</g>
<g style="mix-blend-mode:multiply" clip-path="url(#clip60_35_2151)">
<path d="M200.136 129.537L200.393 129.394L200.393 129.1L200.393 116.4L200.393 116.106L200.136 115.963L188.754 109.623L188.51 109.488L188.267 109.623L176.874 115.973L176.618 116.116L176.618 116.41L176.618 129.1L176.618 129.394L176.874 129.537L188.267 135.877L188.51 136.012L188.754 135.877L200.136 129.537ZM191.384 140.213L191.128 140.356L191.128 140.65L191.128 146.5L190.056 146.5L190.056 139.794L202.5 132.851L202.5 134.016L191.384 140.213ZM190.056 105.706L190.056 98.5L191.128 98.5L191.128 104.85L191.128 105.144L191.384 105.287L202.5 111.484L202.5 112.649L190.056 105.706ZM185.636 140.213L174.5 134.01L174.5 132.845L186.964 139.794L186.964 146.5L185.893 146.5L185.893 140.65L185.893 140.356L185.636 140.213ZM186.964 105.706L174.5 112.655L174.5 111.49L185.636 105.287L185.893 105.144L185.893 104.85L185.893 98.5L186.964 98.5L186.964 105.706ZM201.464 129.956L188.51 137.178L175.546 129.956L175.546 115.544L188.51 108.322L201.464 115.544L201.464 129.956Z" stroke="#D4B43C" stroke-opacity="0.6"/>
</g>
<g style="mix-blend-mode:multiply" clip-path="url(#clip61_35_2151)">
<path d="M200.136 129.537L200.393 129.394L200.393 129.1L200.393 116.4L200.393 116.106L200.136 115.963L188.754 109.623L188.51 109.488L188.267 109.623L176.874 115.973L176.618 116.116L176.618 116.41L176.618 129.1L176.618 129.394L176.874 129.537L188.267 135.877L188.51 136.012L188.754 135.877L200.136 129.537ZM191.384 140.213L191.128 140.356L191.128 140.65L191.128 146.5L190.056 146.5L190.056 139.794L202.5 132.851L202.5 134.016L191.384 140.213ZM190.056 105.706L190.056 98.5L191.128 98.5L191.128 104.85L191.128 105.144L191.384 105.287L202.5 111.484L202.5 112.649L190.056 105.706ZM185.636 140.213L174.5 134.01L174.5 132.845L186.964 139.794L186.964 146.5L185.893 146.5L185.893 140.65L185.893 140.356L185.636 140.213ZM186.964 105.706L174.5 112.655L174.5 111.49L185.636 105.287L185.893 105.144L185.893 104.85L185.893 98.5L186.964 98.5L186.964 105.706ZM201.464 129.956L188.51 137.178L175.546 129.956L175.546 115.544L188.51 108.322L201.464 115.544L201.464 129.956Z" stroke="#D4B43C" stroke-opacity="0.6"/>
</g>
<g style="mix-blend-mode:multiply" clip-path="url(#clip62_35_2151)">
<path d="M229.136 129.537L229.393 129.394L229.393 129.1L229.393 116.4L229.393 116.106L229.136 115.963L217.754 109.623L217.51 109.488L217.267 109.623L205.874 115.973L205.618 116.116L205.618 116.41L205.618 129.1L205.618 129.394L205.874 129.537L217.267 135.877L217.51 136.012L217.754 135.877L229.136 129.537ZM220.384 140.213L220.128 140.356L220.128 140.65L220.128 146.5L219.056 146.5L219.056 139.794L231.5 132.851L231.5 134.016L220.384 140.213ZM219.056 105.706L219.056 98.5L220.128 98.5L220.128 104.85L220.128 105.144L220.384 105.287L231.5 111.484L231.5 112.649L219.056 105.706ZM214.636 140.213L203.5 134.01L203.5 132.845L215.964 139.794L215.964 146.5L214.893 146.5L214.893 140.65L214.893 140.356L214.636 140.213ZM215.964 105.706L203.5 112.655L203.5 111.49L214.636 105.287L214.893 105.144L214.893 104.85L214.893 98.5L215.964 98.5L215.964 105.706ZM230.464 129.956L217.51 137.178L204.546 129.956L204.546 115.544L217.51 108.322L230.464 115.544L230.464 129.956Z" stroke="#D4B43C" stroke-opacity="0.6"/>
</g>
<g style="mix-blend-mode:multiply" clip-path="url(#clip63_35_2151)">
<path d="M229.136 129.537L229.393 129.394L229.393 129.1L229.393 116.4L229.393 116.106L229.136 115.963L217.754 109.623L217.51 109.488L217.267 109.623L205.874 115.973L205.618 116.116L205.618 116.41L205.618 129.1L205.618 129.394L205.874 129.537L217.267 135.877L217.51 136.012L217.754 135.877L229.136 129.537ZM220.384 140.213L220.128 140.356L220.128 140.65L220.128 146.5L219.056 146.5L219.056 139.794L231.5 132.851L231.5 134.016L220.384 140.213ZM219.056 105.706L219.056 98.5L220.128 98.5L220.128 104.85L220.128 105.144L220.384 105.287L231.5 111.484L231.5 112.649L219.056 105.706ZM214.636 140.213L203.5 134.01L203.5 132.845L215.964 139.794L215.964 146.5L214.893 146.5L214.893 140.65L214.893 140.356L214.636 140.213ZM215.964 105.706L203.5 112.655L203.5 111.49L214.636 105.287L214.893 105.144L214.893 104.85L214.893 98.5L215.964 98.5L215.964 105.706ZM230.464 129.956L217.51 137.178L204.546 129.956L204.546 115.544L217.51 108.322L230.464 115.544L230.464 129.956Z" stroke="#D4B43C" stroke-opacity="0.6"/>
</g>
<g style="mix-blend-mode:multiply" clip-path="url(#clip64_35_2151)">
<path d="M258.136 129.537L258.393 129.394L258.393 129.1L258.393 116.4L258.393 116.106L258.136 115.963L246.754 109.623L246.51 109.488L246.267 109.623L234.874 115.973L234.618 116.116L234.618 116.41L234.618 129.1L234.618 129.394L234.874 129.537L246.267 135.877L246.51 136.012L246.754 135.877L258.136 129.537ZM249.384 140.213L249.128 140.356L249.128 140.65L249.128 146.5L248.056 146.5L248.056 139.794L260.5 132.851L260.5 134.016L249.384 140.213ZM248.056 105.706L248.056 98.5L249.128 98.5L249.128 104.85L249.128 105.144L249.384 105.287L260.5 111.484L260.5 112.649L248.056 105.706ZM243.636 140.213L232.5 134.01L232.5 132.845L244.964 139.794L244.964 146.5L243.893 146.5L243.893 140.65L243.893 140.356L243.636 140.213ZM244.964 105.706L232.5 112.655L232.5 111.49L243.636 105.287L243.893 105.144L243.893 104.85L243.893 98.5L244.964 98.5L244.964 105.706ZM259.464 129.956L246.51 137.178L233.546 129.956L233.546 115.544L246.51 108.322L259.464 115.544L259.464 129.956Z" stroke="#D4B43C" stroke-opacity="0.6"/>
</g>
<g style="mix-blend-mode:multiply" clip-path="url(#clip65_35_2151)">
<path d="M258.136 129.537L258.393 129.394L258.393 129.1L258.393 116.4L258.393 116.106L258.136 115.963L246.754 109.623L246.51 109.488L246.267 109.623L234.874 115.973L234.618 116.116L234.618 116.41L234.618 129.1L234.618 129.394L234.874 129.537L246.267 135.877L246.51 136.012L246.754 135.877L258.136 129.537ZM249.384 140.213L249.128 140.356L249.128 140.65L249.128 146.5L248.056 146.5L248.056 139.794L260.5 132.851L260.5 134.016L249.384 140.213ZM248.056 105.706L248.056 98.5L249.128 98.5L249.128 104.85L249.128 105.144L249.384 105.287L260.5 111.484L260.5 112.649L248.056 105.706ZM243.636 140.213L232.5 134.01L232.5 132.845L244.964 139.794L244.964 146.5L243.893 146.5L243.893 140.65L243.893 140.356L243.636 140.213ZM244.964 105.706L232.5 112.655L232.5 111.49L243.636 105.287L243.893 105.144L243.893 104.85L243.893 98.5L244.964 98.5L244.964 105.706ZM259.464 129.956L246.51 137.178L233.546 129.956L233.546 115.544L246.51 108.322L259.464 115.544L259.464 129.956Z" stroke="#D4B43C" stroke-opacity="0.6"/>
</g>
<g style="mix-blend-mode:multiply" clip-path="url(#clip66_35_2151)">
<path d="M287.136 129.537L287.393 129.394L287.393 129.1L287.393 116.4L287.393 116.106L287.136 115.963L275.754 109.623L275.51 109.488L275.267 109.623L263.874 115.973L263.618 116.116L263.618 116.41L263.618 129.1L263.618 129.394L263.874 129.537L275.267 135.877L275.51 136.012L275.754 135.877L287.136 129.537ZM278.384 140.213L278.128 140.356L278.128 140.65L278.128 146.5L277.056 146.5L277.056 139.794L289.5 132.851L289.5 134.016L278.384 140.213ZM277.056 105.706L277.056 98.5L278.128 98.5L278.128 104.85L278.128 105.144L278.384 105.287L289.5 111.484L289.5 112.649L277.056 105.706ZM272.636 140.213L261.5 134.01L261.5 132.845L273.964 139.794L273.964 146.5L272.893 146.5L272.893 140.65L272.893 140.356L272.636 140.213ZM273.964 105.706L261.5 112.655L261.5 111.49L272.636 105.287L272.893 105.144L272.893 104.85L272.893 98.5L273.964 98.5L273.964 105.706ZM288.464 129.956L275.51 137.178L262.546 129.956L262.546 115.544L275.51 108.322L288.464 115.544L288.464 129.956Z" stroke="#D4B43C" stroke-opacity="0.6"/>
</g>
<g style="mix-blend-mode:multiply" clip-path="url(#clip67_35_2151)">
<path d="M287.136 129.537L287.393 129.394L287.393 129.1L287.393 116.4L287.393 116.106L287.136 115.963L275.754 109.623L275.51 109.488L275.267 109.623L263.874 115.973L263.618 116.116L263.618 116.41L263.618 129.1L263.618 129.394L263.874 129.537L275.267 135.877L275.51 136.012L275.754 135.877L287.136 129.537ZM278.384 140.213L278.128 140.356L278.128 140.65L278.128 146.5L277.056 146.5L277.056 139.794L289.5 132.851L289.5 134.016L278.384 140.213ZM277.056 105.706L277.056 98.5L278.128 98.5L278.128 104.85L278.128 105.144L278.384 105.287L289.5 111.484L289.5 112.649L277.056 105.706ZM272.636 140.213L261.5 134.01L261.5 132.845L273.964 139.794L273.964 146.5L272.893 146.5L272.893 140.65L272.893 140.356L272.636 140.213ZM273.964 105.706L261.5 112.655L261.5 111.49L272.636 105.287L272.893 105.144L272.893 104.85L272.893 98.5L273.964 98.5L273.964 105.706ZM288.464 129.956L275.51 137.178L262.546 129.956L262.546 115.544L275.51 108.322L288.464 115.544L288.464 129.956Z" stroke="#D4B43C" stroke-opacity="0.6"/>
</g>
<g style="mix-blend-mode:multiply" clip-path="url(#clip68_35_2151)">
<path d="M316.136 129.537L316.393 129.394L316.393 129.1L316.393 116.4L316.393 116.106L316.136 115.963L304.754 109.623L304.51 109.488L304.267 109.623L292.874 115.973L292.618 116.116L292.618 116.41L292.618 129.1L292.618 129.394L292.874 129.537L304.267 135.877L304.51 136.012L304.754 135.877L316.136 129.537ZM307.384 140.213L307.128 140.356L307.128 140.65L307.128 146.5L306.056 146.5L306.056 139.794L318.5 132.851L318.5 134.016L307.384 140.213ZM306.056 105.706L306.056 98.5L307.128 98.5L307.128 104.85L307.128 105.144L307.384 105.287L318.5 111.484L318.5 112.649L306.056 105.706ZM301.636 140.213L290.5 134.01L290.5 132.845L302.964 139.794L302.964 146.5L301.893 146.5L301.893 140.65L301.893 140.356L301.636 140.213ZM302.964 105.706L290.5 112.655L290.5 111.49L301.636 105.287L301.893 105.144L301.893 104.85L301.893 98.5L302.964 98.5L302.964 105.706ZM317.464 129.956L304.51 137.178L291.546 129.956L291.546 115.544L304.51 108.322L317.464 115.544L317.464 129.956Z" stroke="#D4B43C" stroke-opacity="0.6"/>
</g>
<g style="mix-blend-mode:multiply" clip-path="url(#clip69_35_2151)">
<path d="M316.136 129.537L316.393 129.394L316.393 129.1L316.393 116.4L316.393 116.106L316.136 115.963L304.754 109.623L304.51 109.488L304.267 109.623L292.874 115.973L292.618 116.116L292.618 116.41L292.618 129.1L292.618 129.394L292.874 129.537L304.267 135.877L304.51 136.012L304.754 135.877L316.136 129.537ZM307.384 140.213L307.128 140.356L307.128 140.65L307.128 146.5L306.056 146.5L306.056 139.794L318.5 132.851L318.5 134.016L307.384 140.213ZM306.056 105.706L306.056 98.5L307.128 98.5L307.128 104.85L307.128 105.144L307.384 105.287L318.5 111.484L318.5 112.649L306.056 105.706ZM301.636 140.213L290.5 134.01L290.5 132.845L302.964 139.794L302.964 146.5L301.893 146.5L301.893 140.65L301.893 140.356L301.636 140.213ZM302.964 105.706L290.5 112.655L290.5 111.49L301.636 105.287L301.893 105.144L301.893 104.85L301.893 98.5L302.964 98.5L302.964 105.706ZM317.464 129.956L304.51 137.178L291.546 129.956L291.546 115.544L304.51 108.322L317.464 115.544L317.464 129.956Z" stroke="#D4B43C" stroke-opacity="0.6"/>
</g>
<g style="mix-blend-mode:multiply" clip-path="url(#clip70_35_2151)">
<path d="M345.136 129.537L345.393 129.394L345.393 129.1L345.393 116.4L345.393 116.106L345.136 115.963L333.754 109.623L333.51 109.488L333.267 109.623L321.874 115.973L321.618 116.116L321.618 116.41L321.618 129.1L321.618 129.394L321.874 129.537L333.267 135.877L333.51 136.012L333.754 135.877L345.136 129.537ZM336.384 140.213L336.128 140.356L336.128 140.65L336.128 146.5L335.056 146.5L335.056 139.794L347.5 132.851L347.5 134.016L336.384 140.213ZM335.056 105.706L335.056 98.5L336.128 98.5L336.128 104.85L336.128 105.144L336.384 105.287L347.5 111.484L347.5 112.649L335.056 105.706ZM330.636 140.213L319.5 134.01L319.5 132.845L331.964 139.794L331.964 146.5L330.893 146.5L330.893 140.65L330.893 140.356L330.636 140.213ZM331.964 105.706L319.5 112.655L319.5 111.49L330.636 105.287L330.893 105.144L330.893 104.85L330.893 98.5L331.964 98.5L331.964 105.706ZM346.464 129.956L333.51 137.178L320.546 129.956L320.546 115.544L333.51 108.322L346.464 115.544L346.464 129.956Z" stroke="#D4B43C" stroke-opacity="0.6"/>
</g>
<g style="mix-blend-mode:multiply" clip-path="url(#clip71_35_2151)">
<path d="M345.136 129.537L345.393 129.394L345.393 129.1L345.393 116.4L345.393 116.106L345.136 115.963L333.754 109.623L333.51 109.488L333.267 109.623L321.874 115.973L321.618 116.116L321.618 116.41L321.618 129.1L321.618 129.394L321.874 129.537L333.267 135.877L333.51 136.012L333.754 135.877L345.136 129.537ZM336.384 140.213L336.128 140.356L336.128 140.65L336.128 146.5L335.056 146.5L335.056 139.794L347.5 132.851L347.5 134.016L336.384 140.213ZM335.056 105.706L335.056 98.5L336.128 98.5L336.128 104.85L336.128 105.144L336.384 105.287L347.5 111.484L347.5 112.649L335.056 105.706ZM330.636 140.213L319.5 134.01L319.5 132.845L331.964 139.794L331.964 146.5L330.893 146.5L330.893 140.65L330.893 140.356L330.636 140.213ZM331.964 105.706L319.5 112.655L319.5 111.49L330.636 105.287L330.893 105.144L330.893 104.85L330.893 98.5L331.964 98.5L331.964 105.706ZM346.464 129.956L333.51 137.178L320.546 129.956L320.546 115.544L333.51 108.322L346.464 115.544L346.464 129.956Z" stroke="#D4B43C" stroke-opacity="0.6"/>
</g>
<defs>
<clipPath id="clip0_35_2151">
<rect width="29" height="49" fill="white" transform="translate(29 49) rotate(-180)"/>
</clipPath>
<clipPath id="clip1_35_2151">
<rect width="29" height="49" fill="white" transform="translate(29 49) rotate(-180)"/>
</clipPath>
<clipPath id="clip2_35_2151">
<rect width="29" height="49" fill="white" transform="translate(58 49) rotate(-180)"/>
</clipPath>
<clipPath id="clip3_35_2151">
<rect width="29" height="49" fill="white" transform="translate(58 49) rotate(-180)"/>
</clipPath>
<clipPath id="clip4_35_2151">
<rect width="29" height="49" fill="white" transform="translate(87 49) rotate(-180)"/>
</clipPath>
<clipPath id="clip5_35_2151">
<rect width="29" height="49" fill="white" transform="translate(87 49) rotate(-180)"/>
</clipPath>
<clipPath id="clip6_35_2151">
<rect width="29" height="49" fill="white" transform="translate(116 49) rotate(-180)"/>
</clipPath>
<clipPath id="clip7_35_2151">
<rect width="29" height="49" fill="white" transform="translate(116 49) rotate(-180)"/>
</clipPath>
<clipPath id="clip8_35_2151">
<rect width="29" height="49" fill="white" transform="translate(145 49) rotate(-180)"/>
</clipPath>
<clipPath id="clip9_35_2151">
<rect width="29" height="49" fill="white" transform="translate(145 49) rotate(-180)"/>
</clipPath>
<clipPath id="clip10_35_2151">
<rect width="29" height="49" fill="white" transform="translate(174 49) rotate(-180)"/>
</clipPath>
<clipPath id="clip11_35_2151">
<rect width="29" height="49" fill="white" transform="translate(174 49) rotate(-180)"/>
</clipPath>
<clipPath id="clip12_35_2151">
<rect width="29" height="49" fill="white" transform="translate(203 49) rotate(-180)"/>
</clipPath>
<clipPath id="clip13_35_2151">
<rect width="29" height="49" fill="white" transform="translate(203 49) rotate(-180)"/>
</clipPath>
<clipPath id="clip14_35_2151">
<rect width="29" height="49" fill="white" transform="translate(232 49) rotate(-180)"/>
</clipPath>
<clipPath id="clip15_35_2151">
<rect width="29" height="49" fill="white" transform="translate(232 49) rotate(-180)"/>
</clipPath>
<clipPath id="clip16_35_2151">
<rect width="29" height="49" fill="white" transform="translate(261 49) rotate(-180)"/>
</clipPath>
<clipPath id="clip17_35_2151">
<rect width="29" height="49" fill="white" transform="translate(261 49) rotate(-180)"/>
</clipPath>
<clipPath id="clip18_35_2151">
<rect width="29" height="49" fill="white" transform="translate(290 49) rotate(-180)"/>
</clipPath>
<clipPath id="clip19_35_2151">
<rect width="29" height="49" fill="white" transform="translate(290 49) rotate(-180)"/>
</clipPath>
<clipPath id="clip20_35_2151">
<rect width="29" height="49" fill="white" transform="translate(319 49) rotate(-180)"/>
</clipPath>
<clipPath id="clip21_35_2151">
<rect width="29" height="49" fill="white" transform="translate(319 49) rotate(-180)"/>
</clipPath>
<clipPath id="clip22_35_2151">
<rect width="29" height="49" fill="white" transform="translate(348 49) rotate(-180)"/>
</clipPath>
<clipPath id="clip23_35_2151">
<rect width="29" height="49" fill="white" transform="translate(348 49) rotate(-180)"/>
</clipPath>
<clipPath id="clip24_35_2151">
<rect width="29" height="49" fill="white" transform="translate(29 98) rotate(-180)"/>
</clipPath>
<clipPath id="clip25_35_2151">
<rect width="29" height="49" fill="white" transform="translate(29 98) rotate(-180)"/>
</clipPath>
<clipPath id="clip26_35_2151">
<rect width="29" height="49" fill="white" transform="translate(58 98) rotate(-180)"/>
</clipPath>
<clipPath id="clip27_35_2151">
<rect width="29" height="49" fill="white" transform="translate(58 98) rotate(-180)"/>
</clipPath>
<clipPath id="clip28_35_2151">
<rect width="29" height="49" fill="white" transform="translate(87 98) rotate(-180)"/>
</clipPath>
<clipPath id="clip29_35_2151">
<rect width="29" height="49" fill="white" transform="translate(87 98) rotate(-180)"/>
</clipPath>
<clipPath id="clip30_35_2151">
<rect width="29" height="49" fill="white" transform="translate(116 98) rotate(-180)"/>
</clipPath>
<clipPath id="clip31_35_2151">
<rect width="29" height="49" fill="white" transform="translate(116 98) rotate(-180)"/>
</clipPath>
<clipPath id="clip32_35_2151">
<rect width="29" height="49" fill="white" transform="translate(145 98) rotate(-180)"/>
</clipPath>
<clipPath id="clip33_35_2151">
<rect width="29" height="49" fill="white" transform="translate(145 98) rotate(-180)"/>
</clipPath>
<clipPath id="clip34_35_2151">
<rect width="29" height="49" fill="white" transform="translate(174 98) rotate(-180)"/>
</clipPath>
<clipPath id="clip35_35_2151">
<rect width="29" height="49" fill="white" transform="translate(174 98) rotate(-180)"/>
</clipPath>
<clipPath id="clip36_35_2151">
<rect width="29" height="49" fill="white" transform="translate(203 98) rotate(-180)"/>
</clipPath>
<clipPath id="clip37_35_2151">
<rect width="29" height="49" fill="white" transform="translate(203 98) rotate(-180)"/>
</clipPath>
<clipPath id="clip38_35_2151">
<rect width="29" height="49" fill="white" transform="translate(232 98) rotate(-180)"/>
</clipPath>
<clipPath id="clip39_35_2151">
<rect width="29" height="49" fill="white" transform="translate(232 98) rotate(-180)"/>
</clipPath>
<clipPath id="clip40_35_2151">
<rect width="29" height="49" fill="white" transform="translate(261 98) rotate(-180)"/>
</clipPath>
<clipPath id="clip41_35_2151">
<rect width="29" height="49" fill="white" transform="translate(261 98) rotate(-180)"/>
</clipPath>
<clipPath id="clip42_35_2151">
<rect width="29" height="49" fill="white" transform="translate(290 98) rotate(-180)"/>
</clipPath>
<clipPath id="clip43_35_2151">
<rect width="29" height="49" fill="white" transform="translate(290 98) rotate(-180)"/>
</clipPath>
<clipPath id="clip44_35_2151">
<rect width="29" height="49" fill="white" transform="translate(319 98) rotate(-180)"/>
</clipPath>
<clipPath id="clip45_35_2151">
<rect width="29" height="49" fill="white" transform="translate(319 98) rotate(-180)"/>
</clipPath>
<clipPath id="clip46_35_2151">
<rect width="29" height="49" fill="white" transform="translate(348 98) rotate(-180)"/>
</clipPath>
<clipPath id="clip47_35_2151">
<rect width="29" height="49" fill="white" transform="translate(348 98) rotate(-180)"/>
</clipPath>
<clipPath id="clip48_35_2151">
<rect width="29" height="49" fill="white" transform="translate(29 147) rotate(-180)"/>
</clipPath>
<clipPath id="clip49_35_2151">
<rect width="29" height="49" fill="white" transform="translate(29 147) rotate(-180)"/>
</clipPath>
<clipPath id="clip50_35_2151">
<rect width="29" height="49" fill="white" transform="translate(58 147) rotate(-180)"/>
</clipPath>
<clipPath id="clip51_35_2151">
<rect width="29" height="49" fill="white" transform="translate(58 147) rotate(-180)"/>
</clipPath>
<clipPath id="clip52_35_2151">
<rect width="29" height="49" fill="white" transform="translate(87 147) rotate(-180)"/>
</clipPath>
<clipPath id="clip53_35_2151">
<rect width="29" height="49" fill="white" transform="translate(87 147) rotate(-180)"/>
</clipPath>
<clipPath id="clip54_35_2151">
<rect width="29" height="49" fill="white" transform="translate(116 147) rotate(-180)"/>
</clipPath>
<clipPath id="clip55_35_2151">
<rect width="29" height="49" fill="white" transform="translate(116 147) rotate(-180)"/>
</clipPath>
<clipPath id="clip56_35_2151">
<rect width="29" height="49" fill="white" transform="translate(145 147) rotate(-180)"/>
</clipPath>
<clipPath id="clip57_35_2151">
<rect width="29" height="49" fill="white" transform="translate(145 147) rotate(-180)"/>
</clipPath>
<clipPath id="clip58_35_2151">
<rect width="29" height="49" fill="white" transform="translate(174 147) rotate(-180)"/>
</clipPath>
<clipPath id="clip59_35_2151">
<rect width="29" height="49" fill="white" transform="translate(174 147) rotate(-180)"/>
</clipPath>
<clipPath id="clip60_35_2151">
<rect width="29" height="49" fill="white" transform="translate(203 147) rotate(-180)"/>
</clipPath>
<clipPath id="clip61_35_2151">
<rect width="29" height="49" fill="white" transform="translate(203 147) rotate(-180)"/>
</clipPath>
<clipPath id="clip62_35_2151">
<rect width="29" height="49" fill="white" transform="translate(232 147) rotate(-180)"/>
</clipPath>
<clipPath id="clip63_35_2151">
<rect width="29" height="49" fill="white" transform="translate(232 147) rotate(-180)"/>
</clipPath>
<clipPath id="clip64_35_2151">
<rect width="29" height="49" fill="white" transform="translate(261 147) rotate(-180)"/>
</clipPath>
<clipPath id="clip65_35_2151">
<rect width="29" height="49" fill="white" transform="translate(261 147) rotate(-180)"/>
</clipPath>
<clipPath id="clip66_35_2151">
<rect width="29" height="49" fill="white" transform="translate(290 147) rotate(-180)"/>
</clipPath>
<clipPath id="clip67_35_2151">
<rect width="29" height="49" fill="white" transform="translate(290 147) rotate(-180)"/>
</clipPath>
<clipPath id="clip68_35_2151">
<rect width="29" height="49" fill="white" transform="translate(319 147) rotate(-180)"/>
</clipPath>
<clipPath id="clip69_35_2151">
<rect width="29" height="49" fill="white" transform="translate(319 147) rotate(-180)"/>
</clipPath>
<clipPath id="clip70_35_2151">
<rect width="29" height="49" fill="white" transform="translate(348 147) rotate(-180)"/>
</clipPath>
<clipPath id="clip71_35_2151">
<rect width="29" height="49" fill="white" transform="translate(348 147) rotate(-180)"/>
</clipPath>
</defs>
</svg>
