<svg width="50" height="50" viewBox="0 0 50 50" fill="none" xmlns="http://www.w3.org/2000/svg">
<path fill-rule="evenodd" clip-rule="evenodd" d="M25 45C30.3043 45 35.3914 42.8929 39.1421 39.1421C42.8929 35.3914 45 30.3043 45 25C45 19.6957 42.8929 14.6086 39.1421 10.8579C35.3914 7.10714 30.3043 5 25 5C19.6957 5 14.6086 7.10714 10.8579 10.8579C7.10714 14.6086 5 19.6957 5 25C5 30.3043 7.10714 35.3914 10.8579 39.1421C14.6086 42.8929 19.6957 45 25 45ZM27.5 15C27.5 14.337 27.2366 13.7011 26.7678 13.2322C26.2989 12.7634 25.663 12.5 25 12.5C24.337 12.5 23.7011 12.7634 23.2322 13.2322C22.7634 13.7011 22.5 14.337 22.5 15V25C22.5001 25.663 22.7636 26.2988 23.2325 26.7675L30.3025 33.84C30.5348 34.0723 30.8105 34.2565 31.114 34.3822C31.4175 34.5079 31.7428 34.5726 32.0712 34.5726C32.3997 34.5726 32.725 34.5079 33.0285 34.3822C33.332 34.2565 33.6077 34.0723 33.84 33.84C34.0723 33.6077 34.2565 33.332 34.3822 33.0285C34.5079 32.725 34.5726 32.3997 34.5726 32.0712C34.5726 31.7428 34.5079 31.4175 34.3822 31.114C34.2565 30.8105 34.0723 30.5348 33.84 30.3025L27.5 23.965V15Z" fill="#D4B43C"/>
</svg>
